<svg width="375" height="306" viewBox="0 0 375 306" fill="none" xmlns="http://www.w3.org/2000/svg">
<path d="M252.503 110.624C252.503 110.624 281.745 118.348 287.825 92.5771C293.905 66.8062 266.693 47.44 247.885 51.1651C229.077 54.8901 243.561 102.179 205.468 114.755C205.468 114.755 176.652 138.678 158.403 132.01C140.153 125.341 158.697 73.4849 135.24 67.6893C111.784 61.8936 103.095 64.5022 103.095 64.5022" stroke="#E6E6E6" stroke-width="2.03" stroke-linecap="round" stroke-linejoin="round" stroke-dasharray="3.05 10.15"/>
<path d="M242.702 96.1782L178.308 83.0887L158.556 180.257L222.951 193.346L242.702 96.1782Z" fill="#C1C1C1"/>
<path d="M243.971 89.9382L179.577 76.8488L159.825 174.017L224.219 187.106L243.971 89.9382Z" fill="#E6E6E6"/>
<path d="M237.664 96.2529L182.928 85.1267L168.662 155.31L223.398 166.436L237.664 96.2529Z" fill="white"/>
<path d="M216.288 135.369L187.453 129.508L185.019 141.484L213.854 147.345L216.288 135.369Z" fill="#24285B"/>
<path d="M208.96 262.123V213.474L257.609 209.13L266.297 262.123H208.96Z" fill="#9E3FF6"/>
<path d="M199.916 188.667L211.995 205.658V213.21L254.554 209.404L252.392 188.667C252.392 188.667 257.609 163.962 251.092 147.884C248.188 140.431 246.901 132.446 247.317 124.458C247.641 117.099 237.075 115.415 235.137 122.53C234.335 125.575 233.777 131.665 233.837 137.836C233.859 140.437 233.311 143.01 232.234 145.377C229.645 151.122 225.301 162.399 227.91 168.722L222.896 193.367L199.916 188.667Z" fill="#F4A28C"/>
<path opacity="0.42" d="M194.547 175.432C197.316 175.432 199.561 173.187 199.561 170.417C199.561 167.648 197.316 165.403 194.547 165.403C191.778 165.403 189.533 167.648 189.533 170.417C189.533 173.187 191.778 175.432 194.547 175.432Z" fill="white"/>
<path opacity="0.09" d="M222.936 193.346L227.24 211.84L211.995 213.21V205.658L199.916 188.667L222.936 193.346Z" fill="black"/>
<path d="M150.942 215.869L155.581 205.222C155.581 205.222 163.701 201.162 173.252 197.102C182.803 193.042 187.249 186.495 185.97 181.481C184.691 176.467 175.252 170.417 175.252 170.417C175.252 170.417 193.806 143.611 194.537 138.222C195.267 132.832 190.609 130.802 184.529 134.568C178.449 138.333 166.573 152.523 166.573 152.523C166.573 152.523 146.273 142.962 138.488 149.62C130.703 156.278 128.176 177.675 117.082 196.127L150.942 215.869Z" fill="#F4A28C"/>
<path d="M113.946 194.29L155.855 212.631L140.498 263.533L81.4453 262.123L113.946 194.29Z" fill="#9E3FF6"/>
<path d="M220.94 108.162L193.664 102.731L189.954 121.366L217.23 126.797L220.94 108.162Z" fill="#FFD200"/>
<path opacity="0.72" d="M220.94 108.162L193.664 102.731L189.954 121.366L217.23 126.797L220.94 108.162Z" fill="white"/>
<path d="M193.674 102.717L204.697 118.531L220.947 108.147L193.674 102.717Z" fill="#FFD200"/>
<path d="M107.419 52.5455L70.4935 44.4965L96.1222 73.1703L107.419 52.5455Z" fill="#FFD200"/>
<path d="M104.202 58.4223L104.841 68.9479L99.6646 66.6946L104.202 58.4223Z" fill="#FFD200"/>
<path opacity="0.09" d="M104.202 58.4223L104.841 68.9479L99.6646 66.6946L104.202 58.4223Z" fill="black"/>
<path opacity="0.09" d="M70.4935 44.4965L104.202 58.4223L100.456 65.2533L70.4935 44.4965Z" fill="black"/>
</svg>
