<svg width="375" height="306" viewBox="0 0 375 306" fill="none" xmlns="http://www.w3.org/2000/svg">
<path d="M309.709 57.2754H78.5424V216.691H309.709V57.2754Z" fill="#E6E6E6"/>
<path opacity="0.44" d="M309.709 90.4659H78.5424V216.691H309.709V90.4659Z" fill="#CCCCCC"/>
<path opacity="0.08" d="M300.878 183.135L283.268 208.175H299.843V216.691H309.709L309.089 186.15L300.878 183.135Z" fill="black"/>
<path opacity="0.08" d="M81.425 103.996C81.425 103.996 86.2158 100.768 88.459 112.623C90.7021 124.479 84.1249 134.547 99.8777 136.983C115.631 139.419 125.943 132.761 129.577 151.681C133.21 170.6 153.673 179.157 146.679 196.259C139.686 213.362 133.85 216.691 133.85 216.691H78.5424C78.5424 216.691 78.1263 110.735 81.425 103.996Z" fill="black"/>
<path opacity="0.45" d="M87.0177 282.301C128.399 282.301 161.945 280.129 161.945 277.449C161.945 274.77 128.399 272.597 87.0177 272.597C45.6365 272.597 12.0904 274.77 12.0904 277.449C12.0904 280.129 45.6365 282.301 87.0177 282.301Z" fill="#E6E6E6"/>
<path opacity="0.45" d="M308.227 280.657C328.917 280.657 345.69 278.966 345.69 276.881C345.69 274.795 328.917 273.105 308.227 273.105C287.536 273.105 270.763 274.795 270.763 276.881C270.763 278.966 287.536 280.657 308.227 280.657Z" fill="#E6E6E6"/>
<path d="M97.1879 76.3472C99.6432 76.3472 101.634 74.3568 101.634 71.9015C101.634 69.4462 99.6432 67.4558 97.1879 67.4558C94.7327 67.4558 92.7422 69.4462 92.7422 71.9015C92.7422 74.3568 94.7327 76.3472 97.1879 76.3472Z" fill="#24285B"/>
<path d="M110.413 76.3472C112.869 76.3472 114.859 74.3568 114.859 71.9015C114.859 69.4462 112.869 67.4558 110.413 67.4558C107.958 67.4558 105.968 69.4462 105.968 71.9015C105.968 74.3568 107.958 76.3472 110.413 76.3472Z" fill="#9E3FF6"/>
<path d="M122.878 76.3472C125.333 76.3472 127.323 74.3568 127.323 71.9015C127.323 69.4462 125.333 67.4558 122.878 67.4558C120.422 67.4558 118.432 69.4462 118.432 71.9015C118.432 74.3568 120.422 76.3472 122.878 76.3472Z" fill="#FFD200"/>
<path d="M334.008 41.4008H248.047V106.34H334.008V41.4008Z" fill="#24285B"/>
<path d="M53.0659 269.146C53.0659 269.146 51.8174 272.618 48.6811 272.882C45.5447 273.146 44.7327 276.211 47.5443 277.003C50.3558 277.794 57.6334 274.181 57.6334 274.181L57.4202 269.664L53.0659 269.146Z" fill="#9E3FF6"/>
<path d="M96.1019 269.146C96.1019 269.146 97.3402 272.618 100.477 272.882C103.613 273.146 104.425 276.211 101.613 277.003C98.8018 277.794 91.5344 274.181 91.5344 274.181L91.7374 269.664L96.1019 269.146Z" fill="#9E3FF6"/>
<path d="M141.452 139.805C141.216 139.569 141.028 139.289 140.9 138.981C140.772 138.673 140.707 138.342 140.707 138.008C140.707 137.675 140.772 137.344 140.9 137.036C141.028 136.728 141.216 136.448 141.452 136.212L156.586 121.088C157.069 120.656 157.7 120.426 158.348 120.444C158.996 120.462 159.613 120.727 160.071 121.186C160.53 121.644 160.795 122.261 160.813 122.909C160.832 123.557 160.601 124.188 160.169 124.671L145.035 139.805C144.559 140.279 143.915 140.545 143.244 140.545C142.572 140.545 141.928 140.279 141.452 139.805Z" fill="white"/>
<path d="M156.829 140.049L141.696 124.915C141.454 124.681 141.261 124.4 141.128 124.09C140.996 123.781 140.926 123.448 140.924 123.111C140.921 122.774 140.986 122.44 141.114 122.128C141.242 121.816 141.431 121.533 141.669 121.296C141.908 121.058 142.192 120.87 142.504 120.742C142.816 120.615 143.15 120.552 143.487 120.555C143.824 120.558 144.157 120.629 144.466 120.762C144.775 120.896 145.055 121.089 145.289 121.332L160.412 136.455C160.655 136.689 160.849 136.969 160.982 137.278C161.115 137.588 161.186 137.921 161.189 138.258C161.193 138.594 161.129 138.929 161.002 139.241C160.875 139.553 160.687 139.836 160.449 140.075C160.211 140.313 159.928 140.502 159.616 140.63C159.304 140.758 158.97 140.823 158.634 140.821C158.297 140.818 157.964 140.749 157.654 140.616C157.344 140.483 157.064 140.291 156.829 140.049Z" fill="white"/>
<path d="M225.372 139.805C225.136 139.569 224.949 139.289 224.821 138.981C224.693 138.673 224.627 138.342 224.627 138.008C224.627 137.675 224.693 137.344 224.821 137.036C224.949 136.728 225.136 136.448 225.372 136.212L240.506 121.088C240.736 120.831 241.016 120.623 241.329 120.478C241.642 120.333 241.982 120.253 242.327 120.243C242.672 120.233 243.015 120.294 243.336 120.422C243.657 120.549 243.948 120.741 244.192 120.985C244.436 121.229 244.628 121.521 244.755 121.841C244.883 122.162 244.944 122.505 244.934 122.851C244.925 123.196 244.845 123.535 244.699 123.848C244.554 124.161 244.346 124.441 244.089 124.671L228.965 139.805C228.487 140.277 227.841 140.542 227.169 140.542C226.496 140.542 225.851 140.277 225.372 139.805Z" fill="white"/>
<path d="M240.78 140.049L225.646 124.915C225.404 124.681 225.211 124.4 225.079 124.09C224.946 123.781 224.877 123.448 224.874 123.111C224.872 122.774 224.937 122.44 225.065 122.128C225.193 121.816 225.382 121.533 225.62 121.296C225.859 121.058 226.142 120.87 226.454 120.742C226.766 120.615 227.101 120.552 227.437 120.555C227.774 120.558 228.107 120.629 228.417 120.762C228.726 120.896 229.006 121.089 229.239 121.332L244.363 136.455C244.606 136.689 244.799 136.969 244.933 137.278C245.066 137.588 245.137 137.921 245.14 138.258C245.143 138.594 245.08 138.929 244.953 139.241C244.825 139.553 244.637 139.836 244.399 140.075C244.162 140.313 243.879 140.502 243.567 140.63C243.255 140.758 242.921 140.823 242.584 140.821C242.247 140.818 241.914 140.749 241.604 140.616C241.295 140.483 241.014 140.291 240.78 140.049Z" fill="white"/>
<path d="M172.714 183.135C172.078 183.135 171.465 182.894 170.998 182.461C170.532 182.028 170.245 181.435 170.197 180.801C169.486 172.163 172.765 155.162 190.213 152.685C195.663 151.924 200.221 153.173 203.753 156.421C212.045 164.043 211.223 180.07 211.193 180.781C211.174 181.114 211.09 181.44 210.945 181.741C210.8 182.042 210.598 182.311 210.349 182.533C210.1 182.756 209.81 182.927 209.495 183.037C209.18 183.147 208.846 183.195 208.513 183.176C208.18 183.157 207.854 183.073 207.553 182.928C207.252 182.784 206.983 182.581 206.76 182.332C206.538 182.083 206.367 181.793 206.257 181.478C206.146 181.163 206.099 180.83 206.118 180.496C206.118 180.354 206.838 166.185 200.312 160.196C197.917 158.004 194.851 157.212 190.923 157.76C173.79 160.105 175.181 179.563 175.252 180.405C175.305 181.075 175.09 181.739 174.654 182.251C174.218 182.763 173.597 183.081 172.927 183.135H172.714Z" fill="white"/>
<path d="M100.111 130.457C100.111 130.457 122.441 134.974 120.604 155.832C118.767 176.69 139.067 188.089 126.623 200.126C114.179 212.164 97.5939 205.394 97.5939 205.394L100.111 130.457Z" fill="#9E3FF6"/>
<path opacity="0.39" d="M100.111 130.457C100.111 130.457 122.441 134.974 120.604 155.832C118.767 176.69 139.067 188.089 126.623 200.126C114.179 212.164 97.5939 205.394 97.5939 205.394L100.111 130.457Z" fill="white"/>
<path d="M81.628 109.812C82.5719 112.243 83.1864 114.79 83.455 117.384C83.4658 117.694 83.4153 118.003 83.3062 118.293C83.1972 118.584 83.0318 118.85 82.8196 119.076C82.6073 119.303 82.3524 119.485 82.0696 119.613C81.7867 119.74 81.4814 119.81 81.1713 119.82C80.1753 119.917 79.1725 119.723 78.2845 119.262C77.3964 118.8 76.661 118.092 76.1673 117.221L73.6603 113.699C73.2333 112.939 73.0529 112.065 73.1438 111.198C73.2347 110.331 73.5925 109.513 74.1678 108.858C76.1775 106.31 80.7145 107.102 81.628 109.812Z" fill="#F4A28C"/>
<path d="M74.8174 114.582L75.0102 129.939L83.4652 129.229L79.9228 118.338L74.8174 114.582Z" fill="#F4A28C"/>
<path d="M74.1373 117.353C74.1628 117.448 74.2201 117.531 74.2996 117.588C74.3791 117.645 74.4759 117.674 74.5738 117.668C75.2537 117.658 75.9119 117.427 76.4486 117.009C76.9853 116.592 77.3711 116.01 77.5477 115.354C77.7581 114.632 77.755 113.864 77.5389 113.144C77.3227 112.423 76.9028 111.781 76.3297 111.294C77.7746 111.155 79.1984 110.848 80.5724 110.38C81.0363 110.225 81.4717 109.996 81.8615 109.7L82.0137 105.985C82.0137 105.985 82.8663 102.067 80.6637 101.925C78.4612 101.783 78.1872 104.321 76.1064 103.143C74.0257 101.966 73.4674 101.468 72.0464 102.849C70.6254 104.229 72.9091 104.991 70.1788 105.772C67.4484 106.554 67.7022 107.69 68.0371 108.939C68.2121 109.356 68.5094 109.71 68.8898 109.954C71.3908 111.79 73.2314 114.386 74.1373 117.353Z" fill="#24285B"/>
<path d="M77.9943 115.08C77.9943 115.08 77.4462 113.354 76.1876 113.872C74.929 114.389 75.7004 116.917 77.5376 116.592L77.9943 115.08Z" fill="#F4A28C"/>
<path d="M82.572 112.623L84.3279 113.983C84.4273 114.06 84.5057 114.161 84.5559 114.277C84.6062 114.392 84.6267 114.518 84.6156 114.643C84.6045 114.768 84.5621 114.889 84.4923 114.994C84.4226 115.098 84.3276 115.184 84.2163 115.242L82.5923 116.074L82.572 112.623Z" fill="#F4A28C"/>
<path opacity="0.31" d="M80.41 119.799C79.1991 119.727 78.026 119.35 76.9996 118.703C76.9996 118.703 77.5274 121.748 81.4758 122.997L80.41 119.799Z" fill="#CE8172"/>
<path d="M90.9762 128.457C77.0306 128.705 63.2646 131.649 50.4371 137.125C48.4704 137.957 46.6952 139.183 45.2209 140.728C43.7467 142.272 42.6048 144.103 41.8657 146.106C41.1266 148.109 40.8061 150.243 40.9238 152.375C41.0416 154.506 41.5952 156.592 42.5505 158.501L64.6065 202.502L105.491 200.076C105.491 200.076 112.941 175.35 111.449 147.387C111.148 142.196 108.847 137.324 105.029 133.794C101.212 130.264 96.1745 128.351 90.9762 128.457Z" fill="#9E3FF6"/>
<path d="M64.6065 202.502L52.4265 269.776H58.5165L73.8328 233.236C79.2568 220.3 88.8206 209.529 101.025 202.613L105.511 200.066L64.6065 202.502Z" fill="#24285B"/>
<path opacity="0.08" d="M61.2265 142.972C64.1234 145.333 66.362 148.402 67.7258 151.882C69.0896 155.362 69.5325 159.134 69.0116 162.835C67.144 175.574 65.185 185.48 76.959 182.506C88.733 179.532 95.0565 152.229 95.0565 152.229L108.759 152.564L106.394 183.014L98.4466 183.562C96.5663 183.69 94.7804 184.433 93.3643 185.677C91.9482 186.92 90.9806 188.595 90.6108 190.443L88.4691 201.07L64.6065 202.481L61.2265 197.406L46.3365 181.329L44.479 155.609L61.2265 142.972Z" fill="black"/>
<path d="M77.4607 178.194L104.013 180.053L106.559 143.686L80.0064 141.827L77.4607 178.194Z" fill="#FFD200"/>
<path d="M105.491 200.076L99.1875 269.776H91.0675C91.0675 269.776 92.9656 217.331 78.309 206.166L105.491 200.076Z" fill="#24285B"/>
<path d="M62.14 146.91C62.0836 144.858 61.3942 142.873 60.1662 141.228C58.9382 139.583 57.2317 138.357 55.2803 137.719C53.3289 137.081 51.2281 137.062 49.2654 137.665C47.3028 138.267 45.5743 139.461 44.3166 141.084C39.6273 147.072 35.3034 157.06 35.6587 173.462C36.4199 208.48 56.9737 217.869 88.6924 179.552L82.44 174.731C82.44 174.731 69.9555 185.328 58.5165 185.48C49.96 185.602 62.7186 163.617 62.14 146.91Z" fill="#9E3FF6"/>
<path opacity="0.39" d="M62.14 146.91C62.0836 144.858 61.3942 142.873 60.1662 141.228C58.9382 139.583 57.2317 138.357 55.2803 137.719C53.3289 137.081 51.2281 137.062 49.2654 137.665C47.3028 138.267 45.5743 139.461 44.3166 141.084C39.6273 147.072 35.3034 157.06 35.6587 173.462C36.4199 208.48 56.9737 217.869 88.6924 179.552L82.44 174.731C82.44 174.731 69.9555 185.328 58.5165 185.48C49.96 185.602 62.7186 163.617 62.14 146.91Z" fill="white"/>
<path opacity="0.08" d="M105.257 160.866C105.257 160.866 96.1222 177.644 77.8522 172.904L77.4564 178.781L103.948 180.578L105.257 160.866Z" fill="black"/>
<path d="M83.5971 175.614C83.5971 175.614 87.3323 169.017 91.8998 170.763C96.4673 172.508 88.6924 179.552 88.6924 179.552L83.5971 175.614Z" fill="#F4A28C"/>
<path opacity="0.58" d="M124.745 266.183C124.745 266.183 116.097 263.818 114.22 255.779C114.22 255.779 127.608 253.069 127.993 266.893L124.745 266.183Z" fill="#9E3FF6"/>
<path opacity="0.73" d="M125.801 265.32C125.801 265.32 119.762 255.779 125.08 246.847C125.08 246.847 135.23 253.323 130.734 265.34L125.801 265.32Z" fill="#9E3FF6"/>
<path d="M127.354 265.33C127.354 265.33 130.551 255.251 140.194 253.343C140.194 253.343 142 259.89 133.951 265.361L127.354 265.33Z" fill="#9E3FF6"/>
<path d="M121.091 265.107L122.837 277.094L133.88 277.134L135.504 265.168L121.091 265.107Z" fill="#24285B"/>
<path opacity="0.08" d="M309.719 106.34H263.506V122.266H309.719V106.34Z" fill="black"/>
<path d="M312.368 195.133H305.801V261.229H312.368V195.133Z" fill="#E6E6E6"/>
<path d="M309.709 160.328L283.268 200.837H309.709H336.16L309.709 160.328Z" fill="#FFD200"/>
<path d="M319.016 255.566H299.843V277.145H319.016V255.566Z" fill="#24285B"/>
<path d="M311.373 175.391H307.618V187.571H311.373V175.391Z" fill="#24285B"/>
<path d="M311.373 189.946H307.618V193.702H311.373V189.946Z" fill="#24285B"/>
<path d="M273.304 77.192C270.152 77.192 267.704 74.616 267.704 71.496C267.704 68.376 270.152 65.784 273.304 65.784C276.44 65.784 278.904 68.376 278.904 71.496C278.904 74.616 276.44 77.192 273.304 77.192ZM273.288 75.368C275.4 75.368 276.952 73.608 276.952 71.496C276.952 69.384 275.4 67.608 273.288 67.608C271.192 67.608 269.672 69.384 269.672 71.496C269.672 73.608 271.192 75.368 273.288 75.368ZM284.186 77.192C282.058 77.192 280.218 75.624 280.218 73.256C280.218 70.888 282.058 69.336 284.186 69.336C286.314 69.336 288.17 70.888 288.17 73.256C288.17 75.624 286.314 77.192 284.186 77.192ZM284.186 75.464C285.338 75.464 286.298 74.568 286.298 73.256C286.298 71.976 285.338 71.064 284.186 71.064C283.034 71.064 282.09 71.976 282.09 73.256C282.09 74.568 283.034 75.464 284.186 75.464ZM294.253 69.336C296.221 69.336 297.933 70.872 297.933 73.272C297.933 75.656 296.237 77.192 294.269 77.192C293.325 77.192 292.285 76.808 291.773 76.008V80.648H289.917V69.528H291.773V70.52C292.285 69.72 293.357 69.336 294.253 69.336ZM293.965 75.464C295.117 75.464 296.077 74.52 296.077 73.272C296.077 72.04 295.117 71.064 293.965 71.064C292.829 71.064 291.805 71.96 291.805 73.272C291.805 74.6 292.893 75.464 293.965 75.464ZM302.194 77.192C300.706 77.192 299.218 76.296 299.186 74.696H300.93C300.93 75.208 301.378 75.688 302.162 75.688C302.898 75.688 303.378 75.32 303.378 74.84C303.378 74.424 303.058 74.232 302.498 74.104L301.506 73.848C299.826 73.4 299.394 72.504 299.394 71.56C299.394 70.392 300.546 69.336 302.178 69.336C303.506 69.336 305.01 70.008 304.994 71.672H303.218C303.218 71.16 302.754 70.84 302.226 70.84C301.65 70.84 301.25 71.176 301.25 71.64C301.25 72.024 301.618 72.248 302.05 72.344L303.25 72.664C304.93 73.096 305.234 74.152 305.234 74.84C305.234 76.36 303.714 77.192 302.194 77.192ZM307.907 77.16C307.251 77.16 306.691 76.664 306.691 75.976C306.691 75.288 307.251 74.792 307.907 74.792C308.579 74.792 309.139 75.288 309.139 75.976C309.139 76.664 308.579 77.16 307.907 77.16ZM312.017 77.16C311.361 77.16 310.801 76.664 310.801 75.976C310.801 75.288 311.361 74.792 312.017 74.792C312.689 74.792 313.249 75.288 313.249 75.976C313.249 76.664 312.689 77.16 312.017 77.16ZM316.126 77.16C315.47 77.16 314.91 76.664 314.91 75.976C314.91 75.288 315.47 74.792 316.126 74.792C316.798 74.792 317.358 75.288 317.358 75.976C317.358 76.664 316.798 77.16 316.126 77.16Z" fill="white"/>
</svg>
