<svg width="375" height="306" viewBox="0 0 375 306" fill="none" xmlns="http://www.w3.org/2000/svg">
<path opacity="0.45" d="M152.612 76.2559C91.4986 73.0383 46.4428 134.04 69.0265 190.951C72.9281 200.986 78.9646 210.053 86.718 217.524C136.788 265.564 244.043 249.323 277.376 224.283C310.708 199.243 324.36 123.382 294.458 99.4385C257.238 69.7091 208.092 79.1791 152.612 76.2559Z" fill="#E6E6E6"/>
<path d="M198.977 207.81L229.935 245.111L271.215 198.756L238.085 169.666L198.977 207.81Z" fill="#F4A28C"/>
<path d="M215.735 235.976L264.181 192.585L320.269 240.371L252.945 285.711L215.735 235.976Z" fill="#9E3FF6"/>
<path opacity="0.08" d="M219.45 196.32L280.187 267.37L252.945 285.711L215.735 235.976L219.592 232.677L200.286 209.383L219.45 196.32Z" fill="black"/>
<path d="M115.412 161.973C115.412 161.973 148.085 207.374 179.306 209.109C210.528 210.845 227.224 209.282 240.206 178.954L115.412 161.973Z" fill="#F4A28C"/>
<path opacity="0.08" d="M115.412 161.973C115.412 161.973 148.085 207.374 179.306 209.109C210.528 210.845 227.224 209.282 240.206 178.954L115.412 161.973Z" fill="black"/>
<path d="M215.735 32.6108H124.456V196.32H215.735V32.6108Z" fill="#C9C9C9"/>
<path d="M207.564 51.2767H132.007V166.489H207.564V51.2767Z" fill="white"/>
<path opacity="0.56" d="M170.374 190.169C175.307 190.169 179.306 186.17 179.306 181.237C179.306 176.304 175.307 172.305 170.374 172.305C165.441 172.305 161.442 176.304 161.442 181.237C161.442 186.17 165.441 190.169 170.374 190.169Z" fill="white"/>
<path opacity="0.12" d="M187.964 39.0054H162.376V42.7406H187.964V39.0054Z" fill="black"/>
<path d="M153.109 45.4506C155.413 45.4506 157.281 43.5829 157.281 41.279C157.281 38.975 155.413 37.1073 153.109 37.1073C150.805 37.1073 148.938 38.975 148.938 41.279C148.938 43.5829 150.805 45.4506 153.109 45.4506Z" fill="white"/>
<path opacity="0.08" d="M144.573 161.567C144.573 161.567 150.369 171.95 143.304 175.157C136.24 178.365 124.456 173.127 124.456 173.127V165.474L144.573 161.567Z" fill="black"/>
<path opacity="0.08" d="M142.929 131.898C142.929 131.898 149.425 146.666 142.37 149.884C135.316 153.102 124.456 147.509 124.456 147.509V139.805L142.929 131.898Z" fill="black"/>
<path opacity="0.08" d="M142.929 118.155C142.929 118.155 148.471 129.929 141.406 133.147C134.342 136.364 124.456 133.756 124.456 133.756V126.102L142.929 118.155Z" fill="black"/>
<path d="M119.695 100.626C119.695 100.626 105.8 119.434 119.695 122.956C133.591 126.478 148.389 127.016 141.609 110.877C134.829 94.739 119.695 100.626 119.695 100.626Z" fill="#F4A28C"/>
<path d="M119.695 120.388C119.695 120.388 105.8 139.206 119.695 142.718C133.591 146.23 146.522 147.143 142.553 130.081C139.782 118.135 119.695 120.388 119.695 120.388Z" fill="#F4A28C"/>
<path d="M119.695 141.926C119.695 141.926 105.8 160.744 119.695 164.256C133.591 167.768 144.512 173.391 145.314 156.319C145.852 144.738 119.695 141.926 119.695 141.926Z" fill="#F4A28C"/>
<path opacity="0.46" d="M129.937 108.208L128.698 117.475C128.66 117.766 128.679 118.061 128.756 118.344C128.832 118.628 128.964 118.893 129.143 119.125C129.322 119.357 129.546 119.551 129.8 119.697C130.055 119.842 130.336 119.936 130.627 119.972L133.672 120.358C134.924 120.53 136.195 120.229 137.237 119.514C138.279 118.799 139.016 117.721 139.305 116.49L140.077 113.354C140.245 112.695 140.279 112.009 140.178 111.337C140.076 110.664 139.84 110.019 139.484 109.44C139.128 108.861 138.659 108.359 138.105 107.964C137.552 107.569 136.924 107.29 136.26 107.142L132.697 106.3C132.389 106.223 132.068 106.212 131.756 106.269C131.443 106.326 131.146 106.448 130.885 106.629C130.624 106.81 130.404 107.044 130.241 107.316C130.077 107.588 129.973 107.893 129.937 108.208Z" fill="white"/>
<path opacity="0.08" d="M113.727 113.354C113.727 113.354 112.844 117.16 114.245 119.028H193.902V97.3679L113.727 113.354Z" fill="black"/>
<path d="M196.866 51.2767H109.972V113.354H196.866V51.2767Z" fill="#24285B"/>
<path d="M170.527 156.278C178.733 156.278 185.386 149.626 185.386 141.419C185.386 133.212 178.733 126.559 170.527 126.559C162.32 126.559 155.667 133.212 155.667 141.419C155.667 149.626 162.32 156.278 170.527 156.278Z" fill="#FFD200"/>
<path d="M165.015 141.541L170.019 147.306L176.748 136.709" stroke="white" stroke-width="3.045" stroke-linecap="round" stroke-linejoin="round"/>
<path d="M166.314 112.238L169.786 122.398L173.612 112.238H166.314Z" fill="#24285B"/>
<path d="M158.874 69.4249H156.55V63.9033C156.575 63.4405 156.506 62.9773 156.346 62.5422C156.187 62.107 155.94 61.709 155.621 61.3725C155.302 61.0359 154.918 60.7678 154.493 60.5846C154.067 60.4014 153.608 60.3069 153.145 60.3069C152.681 60.3069 152.222 60.4014 151.797 60.5846C151.371 60.7678 150.987 61.0359 150.668 61.3725C150.35 61.709 150.103 62.107 149.943 62.5422C149.783 62.9773 149.714 63.4405 149.739 63.9033V69.4249H147.374V63.9033C147.437 62.4148 148.072 61.008 149.147 59.9769C150.223 58.9457 151.655 58.37 153.145 58.37C154.634 58.37 156.067 58.9457 157.142 59.9769C158.217 61.008 158.853 62.4148 158.915 63.9033L158.874 69.4249Z" fill="#9E3FF6"/>
<path opacity="0.46" d="M158.874 69.4249H156.55V63.9033C156.575 63.4405 156.506 62.9773 156.346 62.5422C156.187 62.107 155.94 61.709 155.621 61.3725C155.302 61.0359 154.918 60.7678 154.493 60.5846C154.067 60.4014 153.608 60.3069 153.145 60.3069C152.681 60.3069 152.222 60.4014 151.797 60.5846C151.371 60.7678 150.987 61.0359 150.668 61.3725C150.35 61.709 150.103 62.107 149.943 62.5422C149.783 62.9773 149.714 63.4405 149.739 63.9033V69.4249H147.374V63.9033C147.437 62.4148 148.072 61.008 149.147 59.9769C150.223 58.9457 151.655 58.37 153.145 58.37C154.634 58.37 156.067 58.9457 157.142 59.9769C158.217 61.008 158.853 62.4148 158.915 63.9033L158.874 69.4249Z" fill="white"/>
<path d="M161.93 65.2025H144.279V79.2704H161.93V65.2025Z" fill="#9E3FF6"/>
<path d="M154.713 70.3181C154.716 70.0066 154.641 69.6991 154.495 69.4238C154.35 69.1485 154.137 68.9141 153.877 68.7419C153.618 68.5698 153.319 68.4653 153.009 68.4381C152.698 68.4108 152.386 68.4617 152.1 68.586C151.815 68.7103 151.564 68.9041 151.373 69.1497C151.181 69.3954 151.054 69.6851 151.003 69.9925C150.952 70.2999 150.979 70.6151 151.081 70.9095C151.182 71.204 151.356 71.4682 151.587 71.6782V75.6367H154.144V71.6478C154.323 71.475 154.465 71.2685 154.563 71.0402C154.66 70.8119 154.711 70.5664 154.713 70.3181Z" fill="#24285B"/>
<path d="M181.275 86.9337H126.668V100.616H181.275V86.9337Z" fill="white"/>
<path d="M181.286 86.9337H167.248V100.616H181.286V86.9337Z" fill="#FFD200"/>
<path d="M133.002 95.6119C134.011 95.6119 134.829 94.7939 134.829 93.7849C134.829 92.7759 134.011 91.9579 133.002 91.9579C131.993 91.9579 131.175 92.7759 131.175 93.7849C131.175 94.7939 131.993 95.6119 133.002 95.6119Z" fill="#24285B"/>
<path d="M139.782 95.6119C140.791 95.6119 141.609 94.7939 141.609 93.7849C141.609 92.7759 140.791 91.9579 139.782 91.9579C138.773 91.9579 137.955 92.7759 137.955 93.7849C137.955 94.7939 138.773 95.6119 139.782 95.6119Z" fill="#24285B"/>
<path d="M146.4 95.6119C147.409 95.6119 148.227 94.7939 148.227 93.7849C148.227 92.7759 147.409 91.9579 146.4 91.9579C145.391 91.9579 144.573 92.7759 144.573 93.7849C144.573 94.7939 145.391 95.6119 146.4 95.6119Z" fill="#24285B"/>
<path d="M153.18 95.6119C154.189 95.6119 155.007 94.7939 155.007 93.7849C155.007 92.7759 154.189 91.9579 153.18 91.9579C152.171 91.9579 151.353 92.7759 151.353 93.7849C151.353 94.7939 152.171 95.6119 153.18 95.6119Z" fill="#24285B"/>
<path d="M160.103 95.6119C161.112 95.6119 161.93 94.7939 161.93 93.7849C161.93 92.7759 161.112 91.9579 160.103 91.9579C159.093 91.9579 158.275 92.7759 158.275 93.7849C158.275 94.7939 159.093 95.6119 160.103 95.6119Z" fill="#24285B"/>
<path d="M227.265 107.893C227.052 104.422 226.92 100.951 226.961 97.8449C227.032 91.4605 220.789 86.6088 214.781 88.7099C211.736 89.7249 209.3 92.3233 209.3 97.8449C209.3 108.827 212.74 124.651 214.679 132.69C215.495 136.084 215.722 139.593 215.349 143.063C214.09 154.928 212.091 182.932 220.84 184.8C230.99 186.962 255.604 183.389 236.339 142.342C231.176 131.532 228.098 119.845 227.265 107.893Z" fill="#F4A28C"/>
<path opacity="0.46" d="M130.312 152.756L130.069 160.937C130.056 161.196 130.096 161.455 130.186 161.698C130.275 161.941 130.412 162.164 130.589 162.353C130.766 162.542 130.979 162.694 131.216 162.8C131.452 162.905 131.708 162.962 131.967 162.967L134.616 163.038C135.718 163.066 136.792 162.685 137.631 161.97C138.47 161.254 139.016 160.254 139.163 159.161L139.549 156.37C139.633 155.781 139.599 155.182 139.449 154.606C139.299 154.031 139.035 153.492 138.675 153.019C138.314 152.547 137.862 152.151 137.346 151.855C136.831 151.559 136.261 151.368 135.671 151.295L132.505 150.889C132.236 150.855 131.963 150.877 131.703 150.955C131.443 151.032 131.203 151.163 130.996 151.339C130.79 151.514 130.622 151.731 130.505 151.975C130.387 152.219 130.321 152.485 130.312 152.756Z" fill="white"/>
<path opacity="0.46" d="M129.023 128.001L127.785 137.288C127.745 137.579 127.763 137.876 127.839 138.16C127.915 138.445 128.046 138.711 128.225 138.944C128.405 139.177 128.629 139.373 128.884 139.519C129.14 139.665 129.421 139.759 129.713 139.795L132.758 140.181C134.01 140.342 135.277 140.037 136.318 139.323C137.359 138.61 138.1 137.539 138.402 136.313L139.163 133.177C139.324 132.518 139.354 131.833 139.249 131.162C139.144 130.492 138.907 129.849 138.552 129.27C138.198 128.692 137.732 128.189 137.181 127.792C136.631 127.394 136.007 127.11 135.347 126.955L131.784 126.123C131.478 126.046 131.159 126.034 130.849 126.089C130.538 126.144 130.243 126.264 129.982 126.442C129.721 126.619 129.501 126.85 129.335 127.118C129.17 127.387 129.064 127.688 129.023 128.001Z" fill="white"/>
</svg>
