<svg width="375" height="306" viewBox="0 0 375 306" fill="none" xmlns="http://www.w3.org/2000/svg">
<path opacity="0.45" d="M191.07 280.362C280.778 280.362 353.501 271.574 353.501 260.732C353.501 249.891 280.778 241.102 191.07 241.102C101.362 241.102 28.6397 249.891 28.6397 260.732C28.6397 271.574 101.362 280.362 191.07 280.362Z" fill="#E6E6E6"/>
<path d="M295.909 217.219H237.111V235.865H295.909V217.219Z" fill="#E6E6E6"/>
<path d="M319.66 236.189H237.111V254.835H319.66V236.189Z" fill="#C9C9C9"/>
<path d="M272.209 46.6686H103.07V260.722H272.209V46.6686Z" fill="#24285B"/>
<path opacity="0.07" d="M248.499 57.2551H126.435C121.227 57.2551 117.006 61.4767 117.006 66.6844V82.2545C117.006 87.4622 121.227 91.6839 126.435 91.6839H248.499C253.707 91.6839 257.928 87.4622 257.928 82.2545V66.6844C257.928 61.4767 253.707 57.2551 248.499 57.2551Z" fill="white"/>
<path d="M228.838 34.377H142.746V46.6686H228.838V34.377Z" fill="#9E3FF6"/>
<path d="M241.688 83.7161C246.773 83.7161 250.894 79.5944 250.894 74.5101C250.894 69.4257 246.773 65.304 241.688 65.304C236.604 65.304 232.482 69.4257 232.482 74.5101C232.482 79.5944 236.604 83.7161 241.688 83.7161Z" fill="#9E3FF6"/>
<path d="M222.758 70.1354H131.439V78.8847H222.758V70.1354Z" fill="white"/>
<path opacity="0.07" d="M248.499 109.588H126.435C121.227 109.588 117.006 113.81 117.006 119.018V134.588C117.006 139.796 121.227 144.017 126.435 144.017H248.499C253.707 144.017 257.928 139.796 257.928 134.588V119.018C257.928 113.81 253.707 109.588 248.499 109.588Z" fill="white"/>
<path d="M241.688 136.049C246.773 136.049 250.894 131.928 250.894 126.843C250.894 121.759 246.773 117.637 241.688 117.637C236.604 117.637 232.482 121.759 232.482 126.843C232.482 131.928 236.604 136.049 241.688 136.049Z" fill="#9E3FF6"/>
<path d="M222.758 122.469H131.439V131.218H222.758V122.469Z" fill="white"/>
<path opacity="0.07" d="M248.499 161.912H126.435C121.227 161.912 117.006 166.133 117.006 171.341V186.911C117.006 192.119 121.227 196.34 126.435 196.34H248.499C253.707 196.34 257.928 192.119 257.928 186.911V171.341C257.928 166.133 253.707 161.912 248.499 161.912Z" fill="white"/>
<path d="M241.688 188.373C246.773 188.373 250.894 184.251 250.894 179.167C250.894 174.082 246.773 169.961 241.688 169.961C236.604 169.961 232.482 174.082 232.482 179.167C232.482 184.251 236.604 188.373 241.688 188.373Z" fill="#9E3FF6"/>
<path d="M222.758 174.792H131.439V183.541H222.758V174.792Z" fill="white"/>
<path opacity="0.07" d="M248.499 214.235H126.435C121.227 214.235 117.006 218.457 117.006 223.664V239.234C117.006 244.442 121.227 248.664 126.435 248.664H248.499C253.707 248.664 257.928 244.442 257.928 239.234V223.664C257.928 218.457 253.707 214.235 248.499 214.235Z" fill="white"/>
<path d="M241.688 240.696C246.773 240.696 250.894 236.574 250.894 231.49C250.894 226.406 246.773 222.284 241.688 222.284C236.604 222.284 232.482 226.406 232.482 231.49C232.482 236.574 236.604 240.696 241.688 240.696Z" fill="#9E3FF6"/>
<path d="M222.758 227.115H131.439V235.865H222.758V227.115Z" fill="white"/>
<path d="M311.439 22.4H261.877V58.5847H311.439V22.4Z" fill="#FFD200"/>
<path d="M283.77 49.0843H283.709C283.498 49.0745 283.291 49.0185 283.103 48.9203C282.916 48.8222 282.752 48.6841 282.623 48.5159L277.711 42.2026C277.474 41.8984 277.367 41.5125 277.415 41.1299C277.462 40.7473 277.66 40.3993 277.964 40.1624C278.268 39.9255 278.654 39.8192 279.037 39.8668C279.42 39.9144 279.768 40.112 280.004 40.4162L283.861 45.3897L293.392 35.0976C293.656 34.8269 294.016 34.6699 294.394 34.66C294.772 34.6502 295.139 34.7883 295.416 35.0449C295.694 35.3015 295.861 35.6563 295.881 36.0339C295.901 36.4115 295.773 36.7821 295.524 37.0667L284.836 48.6174C284.7 48.764 284.535 48.8811 284.351 48.9614C284.168 49.0418 283.97 49.0836 283.77 49.0843Z" fill="white"/>
<path opacity="0.2" d="M111.088 66.0754C111.088 66.0754 119.766 62.1778 119.766 69.1914C119.766 76.2051 110.916 97.3678 115.788 100.352C120.66 103.336 141.69 98.1088 145.03 119.2C148.369 140.292 140.625 189.449 193.669 194.219C193.669 194.219 199.332 207.191 184.432 205.628C169.532 204.065 146.583 196.178 140.919 198.624C135.255 201.07 142.117 260.225 142.117 260.225H103.394L103.658 195.112L102.755 92.171L111.088 66.0754Z" fill="black"/>
<path d="M109.545 73.83C109.545 73.83 110.215 79.7373 109.322 83.6958C109.236 84.0804 109.074 84.4441 108.846 84.7657C108.619 85.0873 108.329 85.3604 107.995 85.5691C107.66 85.7778 107.288 85.918 106.899 85.9815C106.51 86.045 106.112 86.0305 105.729 85.939C104.478 85.731 103.313 85.165 102.376 84.3094C101.44 83.4538 100.771 82.3453 100.451 81.1177L98.5428 75.9717C98.2643 74.903 98.3247 73.7743 98.7156 72.7415C99.1066 71.7087 99.8087 70.8228 100.725 70.2065C104.034 67.74 109.322 70.2065 109.545 73.83Z" fill="#844837"/>
<path d="M139.427 98.9614C139.427 98.9614 159.301 102.534 154.52 141.835C149.739 181.136 190.329 190.9 190.329 190.9C190.329 190.9 201.108 187.53 202.702 194.077C204.296 200.624 190.329 198.137 190.329 198.137C190.329 198.137 147.699 200.076 130.444 158.552C130.454 158.562 119.766 108.898 139.427 98.9614Z" fill="#844837"/>
<path d="M99.6288 77.4231L94.8279 96.3021L105.424 98.2001L104.663 83.7059L99.6288 77.4231Z" fill="#844837"/>
<path d="M97.8932 80.5899C97.8986 80.7134 97.9442 80.8317 98.023 80.9269C98.1017 81.0222 98.2094 81.0892 98.3296 81.1177C99.1688 81.339 100.058 81.2769 100.858 80.941C101.658 80.6051 102.325 80.0142 102.755 79.2603C103.265 78.4406 103.524 77.4891 103.499 76.5238C103.473 75.5585 103.165 74.6219 102.613 73.83C104.427 74.1305 106.269 74.2224 108.104 74.1041C108.721 74.0668 109.328 73.9297 109.901 73.6981L111.311 69.1915C111.311 69.1915 113.646 64.6747 110.997 63.7714C108.348 62.868 107.18 65.8927 105.008 63.7714C102.836 61.65 102.329 60.8583 100.146 62.0763C97.9642 63.2943 100.502 64.9995 96.8985 65.0503C93.2952 65.101 93.2343 66.5829 93.2343 68.2272C93.3216 68.7849 93.5724 69.3042 93.955 69.7193C96.4099 72.8209 97.7918 76.6356 97.8932 80.5899Z" fill="#FFD200"/>
<path d="M103.364 79.0674C103.364 79.0674 103.262 76.7836 101.547 77.0374C99.8318 77.2911 99.9637 80.5594 102.308 80.803L103.364 79.0674Z" fill="#844837"/>
<path d="M109.779 77.5652L111.494 79.8083C111.577 79.9401 111.629 80.0893 111.646 80.2443C111.662 80.3994 111.643 80.5561 111.589 80.7024C111.535 80.8486 111.448 80.9805 111.334 81.0877C111.221 81.195 111.085 81.2747 110.936 81.3207L108.672 81.8079L109.779 77.5652Z" fill="#844837"/>
<path opacity="0.31" d="M104.724 85.6345C104.724 85.6345 103.364 85.401 100.908 83.1782C100.908 83.1782 100.563 87.0555 104.968 89.8975L104.724 85.6345Z" fill="#CE8172"/>
<path d="M83.9978 190.941L80.425 256.906L84.5053 256.845L99.0908 191.743L83.9978 190.941Z" fill="#844837"/>
<path d="M123.664 190.941L127.237 256.906H122.74L108.571 191.743L123.664 190.941Z" fill="#844837"/>
<path d="M63.17 119.718C62.8307 116.794 63.0842 113.832 63.9154 111.008C64.7465 108.185 66.1383 105.557 68.0076 103.284C69.8768 101.01 72.1852 99.136 74.7948 97.7743C77.4044 96.4126 80.2617 95.5909 83.1959 95.3582C99.1923 94.0894 121.522 93.7545 139.427 98.9513C171.024 108.086 125.998 183.47 125.998 183.47L80.425 181.227C80.425 181.227 66.8443 151.833 63.17 119.718Z" fill="#9E3FF6"/>
<path opacity="0.08" d="M89.763 106.513C89.763 106.513 100.289 115.049 94.838 128.366C89.3875 141.683 80.1104 153.822 94.838 156.177C109.566 158.532 123.126 143.286 126.009 124.905C128.891 106.523 133.875 110.878 133.875 110.878L145.994 112.268L141.021 148.23L127.237 147.834C127.237 147.834 118.102 167.119 102.735 182.344L80.4047 181.247L77.106 173.3L65.129 141.104L89.763 106.513Z" fill="black"/>
<path d="M80.425 181.227V215.077H100.126L101.029 203.019C101.279 199.671 102.507 196.47 104.56 193.814C106.614 191.157 109.403 189.163 112.58 188.078L125.998 183.45L80.425 181.227Z" fill="#24285B"/>
<path d="M140.89 108.079L115.791 104.868L111.072 141.757L136.171 144.968L140.89 108.079Z" fill="#FFD200"/>
<path opacity="0.08" d="M138.747 124.905C136.233 129.812 132.25 133.811 127.353 136.344C122.456 138.877 116.89 139.817 111.433 139.034L111.088 141.744L136.189 144.951L138.747 124.905Z" fill="black"/>
<path d="M125.998 183.45L129.693 215.047H108.672C108.672 215.047 107.8 201.456 101.872 191.702L125.998 183.45Z" fill="#24285B"/>
<path d="M89.0931 119.617C96.868 104.28 78.2022 89.329 64.8651 100.22C59.0659 104.752 54.6789 110.843 52.2182 117.779C44.2707 141.125 36.3131 178.517 70.6912 174.325C105.069 170.133 123.867 144.951 123.867 144.951L118.965 138.861C118.965 138.861 99.1518 157.679 78.0702 152.371C64.6519 149.021 80.6686 136.212 89.0931 119.617Z" fill="#844837"/>
<path d="M127.034 256.845C127.034 256.845 128.709 259.89 131.642 259.636C134.575 259.382 135.793 262.112 133.317 263.28C130.84 264.447 123.573 262.184 123.573 262.184L122.953 256.845H127.034Z" fill="#9E3FF6"/>
<path d="M80.5163 256.845C80.5163 256.845 78.8416 259.89 75.9083 259.636C72.9749 259.382 71.7569 262.112 74.2335 263.28C76.7101 264.447 83.9775 262.184 83.9775 262.184L84.5967 256.845H80.5163Z" fill="#9E3FF6"/>
<path d="M118.995 138.892C118.995 138.892 123.37 133.096 128.881 134.527C134.393 135.958 123.897 144.951 123.897 144.951L118.995 138.892Z" fill="#844837"/>
</svg>
