<svg width="375" height="306" viewBox="0 0 375 306" fill="none" xmlns="http://www.w3.org/2000/svg">
<path d="M119.188 109.213L83.5106 51.5406L51.3554 109.213H119.188Z" fill="#EFEFEF"/>
<path d="M104.379 75.6976L82.6783 33.3924L63.1091 75.6976H104.379Z" fill="#EFEFEF"/>
<path d="M125.207 147.631L83.7846 70.785L46.4529 147.631H125.207Z" fill="#EFEFEF"/>
<path d="M134.119 191.073L82.861 93.1454L36.6379 191.073H134.119Z" fill="#EFEFEF"/>
<path d="M77.2074 191.073H94.4421V248.491H77.2074V191.073Z" fill="#A5A5A5"/>
<path opacity="0.32" d="M127.419 176.436L143.122 141.317H132.921L152.652 100.707H141.741L161.94 61.3759L184.341 100.707H174.688L196.582 141.317H184.655L202.073 176.436H127.419Z" fill="#C9C9C9"/>
<path d="M156.073 176.436H169.999V222.842H156.073V176.436Z" fill="#A5A5A5"/>
<path d="M282.41 110.959C283.152 113.65 283.531 116.429 283.537 119.221C283.515 119.553 283.427 119.877 283.28 120.174C283.132 120.472 282.926 120.738 282.675 120.956C282.424 121.174 282.133 121.34 281.817 121.445C281.501 121.549 281.168 121.59 280.837 121.565C279.76 121.564 278.707 121.249 277.806 120.66C276.905 120.071 276.195 119.232 275.762 118.246L273.478 114.186C273.114 113.332 273.022 112.387 273.215 111.479C273.407 110.571 273.875 109.744 274.554 109.111C277.03 106.584 281.771 107.964 282.41 110.959Z" fill="#844837"/>
<path d="M274.493 115.212L270.545 131.178L279.507 132.73L278.797 120.794L274.493 115.212Z" fill="#844837"/>
<path d="M283.131 114.044L284.856 115.689C284.954 115.783 285.027 115.9 285.068 116.03C285.108 116.159 285.116 116.297 285.09 116.43C285.063 116.564 285.004 116.688 284.917 116.793C284.83 116.897 284.719 116.978 284.592 117.028L282.775 117.729L283.131 114.044Z" fill="#844837"/>
<path opacity="0.31" d="M278.817 121.129C278.817 121.129 275.772 119.718 274.919 118.47C274.919 118.47 275.102 125.037 279.162 126.955L278.817 121.129Z" fill="#CE8172"/>
<path d="M277.447 115.506C277.447 115.506 277.061 113.618 275.66 114.024C274.26 114.43 274.808 117.181 276.797 117.069L277.447 115.506Z" fill="#844837"/>
<path d="M271.641 113.09L272.656 114.897C272.656 114.897 273.925 119.535 277.01 121.941C280.096 124.347 284.45 123.849 284.826 120.581C285.252 116.836 282.796 117.729 279.385 117.536C275.975 117.343 276.543 112.877 276.543 112.877C277.167 112.879 277.782 112.729 278.334 112.439C278.886 112.149 279.358 111.728 279.71 111.212L281.902 109.761C281.981 108.83 281.696 107.904 281.107 107.178C280.519 106.451 279.673 105.981 278.746 105.863C275.305 105.295 268.362 107.711 271.641 113.09Z" fill="#24285B"/>
<path d="M274.554 113.547C274.554 113.547 272.118 112.106 271.215 114.044C270.311 115.983 273.031 117.505 274.879 116.328C274.444 115.469 274.329 114.483 274.554 113.547Z" fill="#844837"/>
<path opacity="0.45" d="M187 282.301C103.133 282.301 35.1459 272.367 35.1459 260.113C35.1459 247.859 103.133 237.925 187 237.925C270.867 237.925 338.854 247.859 338.854 260.113C338.854 272.367 270.867 282.301 187 282.301Z" fill="#E6E6E6"/>
<path d="M255.756 248.491H153.556L211.106 162.957L255.756 248.491Z" fill="#C9C9C9"/>
<path d="M211.106 162.957H124.243L70.8941 248.491H153.556L211.106 162.957Z" fill="#E6E6E6"/>
<path d="M211.106 162.957V248.491H203.138L211.106 162.957Z" fill="#A5A5A5"/>
<path d="M224.149 220.914H294.529V262.498H224.149V220.914Z" fill="#E6E6E6"/>
<path opacity="0.25" d="M262.11 262.498L293.575 262.722L294.468 236.007L292.326 224.74L278.319 222.71L249.351 220.68C249.351 220.68 251.148 229.714 257.969 233.987C260.559 235.541 262.713 237.727 264.229 240.34C265.745 242.953 266.573 245.908 266.637 248.928C266.748 253.839 265.148 258.637 262.11 262.498Z" fill="#A5A5A5"/>
<path d="M280.624 257.687C280.624 257.687 281.872 261.158 285.008 261.422C288.145 261.686 288.957 264.752 286.145 265.543C283.334 266.335 276.066 262.722 276.066 262.722L276.269 258.205L280.624 257.687Z" fill="#9E3FF6"/>
<path d="M280.268 132.548L271.306 131.005C271.306 131.005 241.506 131.005 236.288 141.246C231.071 151.488 232.168 189.449 249.412 220.629L284.704 221.644C284.704 221.644 282.745 198.736 289.322 186.262C295.899 173.787 316.341 147.306 280.268 132.548Z" fill="#9E3FF6"/>
<path d="M249.412 220.629L266.667 218.021C269.161 217.645 271.707 217.845 274.111 218.605C276.516 219.365 278.714 220.666 280.538 222.407C282.362 224.147 283.764 226.283 284.636 228.649C285.507 231.015 285.826 233.549 285.567 236.057L283.313 257.992H274.838L275.579 237.458C275.622 236.309 275.41 235.165 274.957 234.107C274.505 233.05 273.824 232.107 272.962 231.345C272.101 230.582 271.082 230.021 269.977 229.7C268.873 229.38 267.711 229.308 266.576 229.49C259.238 230.678 250.133 230.14 249.412 220.629Z" fill="#24285B"/>
<path d="M298.203 257.687C298.203 257.687 299.452 261.158 302.578 261.422C305.704 261.686 306.526 264.752 303.715 265.543C300.903 266.335 293.636 262.722 293.636 262.722L293.839 258.205L298.203 257.687Z" fill="#9E3FF6"/>
<path opacity="0.08" d="M252.437 144.88C252.437 144.88 262.222 153.457 260.253 162.927C258.283 172.397 277.447 195.985 277.447 195.985L284.552 219.411L249.372 220.599L246.915 215.788L252.437 144.88Z" fill="black"/>
<path d="M266.982 220.629L284.237 218.021C286.73 217.645 289.277 217.845 291.681 218.605C294.085 219.365 296.284 220.666 298.108 222.407C299.932 224.147 301.333 226.283 302.205 228.649C303.077 231.015 303.395 233.549 303.136 236.057L300.883 257.992H292.418L293.149 237.458C293.192 236.309 292.979 235.165 292.527 234.107C292.074 233.05 291.393 232.107 290.532 231.345C289.671 230.582 288.651 230.021 287.547 229.7C286.443 229.38 285.281 229.308 284.146 229.49C276.807 230.678 267.703 230.14 266.982 220.629Z" fill="#24285B"/>
<path d="M82.6174 252.551L90.0269 239.854L81.105 244.391L76.568 229.876L72.6399 242.97L63.5658 237.925L65.0782 247.111L54.0959 247.73L61.1501 252.551H82.6174Z" fill="#C9C9C9"/>
<path d="M251.96 143.54C251.417 142.016 250.508 140.648 249.312 139.557C248.117 138.466 246.671 137.686 245.103 137.285C243.535 136.884 241.893 136.874 240.32 137.257C238.748 137.64 237.294 138.403 236.085 139.48C232.279 142.931 228.696 148.96 228.909 159.415C229.366 181.339 231.213 215.981 243.424 217.828C255.634 219.675 263.835 184.211 263.835 184.211L258.091 177.695L250.377 170.306C250.377 170.306 255.827 154.502 251.96 143.54Z" fill="#9E3FF6"/>
<path opacity="0.35" d="M251.96 143.54C251.417 142.016 250.508 140.648 249.312 139.557C248.117 138.466 246.671 137.686 245.103 137.285C243.535 136.884 241.893 136.874 240.32 137.257C238.748 137.64 237.294 138.403 236.085 139.48C232.279 142.931 228.696 148.96 228.909 159.415C229.366 181.339 231.213 215.981 243.424 217.828C255.634 219.675 263.835 184.211 263.835 184.211L258.091 177.695L250.377 170.306C250.377 170.306 255.827 154.502 251.96 143.54Z" fill="white"/>
<path d="M281.639 108.969L271.976 113.161C271.822 113.231 271.649 113.247 271.485 113.206C271.322 113.166 271.176 113.071 271.072 112.938C270.23 111.923 268.281 109.172 268.535 107.366C268.85 105.062 270.646 101.083 273.772 100.768C276.198 100.525 279.862 99.6516 282.288 107.518C282.379 107.797 282.362 108.1 282.242 108.368C282.122 108.636 281.907 108.851 281.639 108.969Z" fill="#FFD200"/>
<path d="M275.163 196.929L257.329 178.913L256.203 180.029L247.352 171.077L253.381 165.109L262.232 174.061L261.105 175.178L278.939 193.194C281.817 191.275 285.308 190.497 288.729 191.012C292.15 191.527 295.257 193.298 297.443 195.98C299.629 198.661 300.738 202.061 300.553 205.516C300.369 208.97 298.904 212.232 296.444 214.666C293.984 217.099 290.707 218.528 287.25 218.676C283.793 218.823 280.406 217.677 277.748 215.462C275.091 213.247 273.353 210.122 272.875 206.695C272.397 203.269 273.213 199.787 275.163 196.929Z" fill="#FFD200"/>
<path d="M286.663 210.5C283.501 210.5 280.938 207.937 280.938 204.775C280.938 201.614 283.501 199.051 286.663 199.051C289.824 199.051 292.387 201.614 292.387 204.775C292.387 207.937 289.824 210.5 286.663 210.5Z" fill="white"/>
<path d="M257.39 181.349C257.39 181.349 256.375 175.574 262.841 178.558C269.306 181.542 268.768 195.224 257.39 181.349Z" fill="#844837"/>
<path d="M295.707 202.512C295.707 202.512 286.277 200.695 285.668 203.648C285.059 206.602 286.308 211.586 294.529 208.632C302.751 205.678 295.707 202.512 295.707 202.512Z" fill="#844837"/>
<path d="M296.803 143.956C296.803 143.956 330.491 185.571 323.751 208.257C318.311 226.527 294.529 208.632 294.529 208.632L295.706 202.542L311.358 205.78L293.372 179.106L296.803 143.956Z" fill="#9E3FF6"/>
<path d="M227.813 116.318C215.15 116.318 204.884 106.052 204.884 93.3891C204.884 80.7258 215.15 70.4602 227.813 70.4602C240.476 70.4602 250.742 80.7258 250.742 93.3891C250.742 106.052 240.476 116.318 227.813 116.318Z" fill="#24285B"/>
<path d="M226.497 91.776V86.976H228.145V98H226.497V93.264H221.409V98H219.761V86.976H221.409V91.776H226.497ZM231.475 88.816C230.899 88.816 230.403 88.384 230.403 87.808C230.403 87.232 230.899 86.8 231.475 86.8C232.067 86.8 232.547 87.232 232.547 87.808C232.547 88.384 232.067 88.816 231.475 88.816ZM232.259 98H230.691V90.528H232.259V98ZM236.213 94.688H234.981L234.789 86.976H236.389L236.213 94.688ZM235.573 98.192C234.981 98.192 234.469 97.744 234.469 97.136C234.469 96.528 234.981 96.08 235.573 96.08C236.181 96.08 236.693 96.528 236.693 97.136C236.693 97.744 236.181 98.192 235.573 98.192Z" fill="white"/>
<path d="M241.485 101.885L250.742 119.119L234.877 107.63L241.485 101.885Z" fill="#24285B"/>
<path opacity="0.08" d="M293.372 179.106C293.372 179.106 305.166 161.282 298.508 146.149C298.508 146.149 306.537 156.989 310.038 162.957C310.038 162.957 309.206 181.775 299.015 187.459L293.372 179.106Z" fill="black"/>
<path d="M348.05 133.695C345.836 133.695 344.041 131.9 344.041 129.685C344.041 127.471 345.836 125.676 348.05 125.676C350.264 125.676 352.059 127.471 352.059 129.685C352.059 131.9 350.264 133.695 348.05 133.695Z" fill="#C9C9C9"/>
<path d="M238.806 37.4118C236.591 37.4118 234.796 35.6168 234.796 33.4026C234.796 31.1883 236.591 29.3933 238.806 29.3933C241.02 29.3933 242.815 31.1883 242.815 33.4026C242.815 35.6168 241.02 37.4118 238.806 37.4118Z" fill="#C9C9C9"/>
<path d="M11.405 252.5C9.1908 252.5 7.39578 250.705 7.39578 248.491C7.39578 246.277 9.1908 244.482 11.405 244.482C13.6193 244.482 15.4143 246.277 15.4143 248.491C15.4143 250.705 13.6193 252.5 11.405 252.5Z" fill="#C9C9C9"/>
<path d="M11.405 56.5141C9.1908 56.5141 7.39578 54.7191 7.39578 52.5049C7.39578 50.2906 9.1908 48.4956 11.405 48.4956C13.6193 48.4956 15.4143 50.2906 15.4143 52.5049C15.4143 54.7191 13.6193 56.5141 11.405 56.5141Z" fill="#C9C9C9"/>
<path opacity="0.36" d="M335.19 38.376C332.976 38.376 331.181 36.581 331.181 34.3668C331.181 32.1525 332.976 30.3575 335.19 30.3575C337.404 30.3575 339.199 32.1525 339.199 34.3668C339.199 36.581 337.404 38.376 335.19 38.376Z" fill="#C9C9C9"/>
<path opacity="0.36" d="M129.744 38.376C127.53 38.376 125.735 36.581 125.735 34.3668C125.735 32.1525 127.53 30.3575 129.744 30.3575C131.958 30.3575 133.753 32.1525 133.753 34.3668C133.753 36.581 131.958 38.376 129.744 38.376Z" fill="#C9C9C9"/>
<path opacity="0.36" d="M23.4226 145.185C21.2084 145.185 19.4134 143.39 19.4134 141.175C19.4134 138.961 21.2084 137.166 23.4226 137.166C25.6369 137.166 27.4319 138.961 27.4319 141.175C27.4319 143.39 25.6369 145.185 23.4226 145.185Z" fill="#C9C9C9"/>
<path opacity="0.36" d="M220.15 139.013C217.936 139.013 216.141 137.218 216.141 135.004C216.141 132.79 217.936 130.995 220.15 130.995C222.364 130.995 224.159 132.79 224.159 135.004C224.159 137.218 222.364 139.013 220.15 139.013Z" fill="#C9C9C9"/>
<path opacity="0.36" d="M364.645 242.046C362.431 242.046 360.636 240.251 360.636 238.037C360.636 235.822 362.431 234.027 364.645 234.027C366.86 234.027 368.655 235.822 368.655 238.037C368.655 240.251 366.86 242.046 364.645 242.046Z" fill="#C9C9C9"/>
</svg>
