<svg width="375" height="306" viewBox="0 0 375 306" fill="none" xmlns="http://www.w3.org/2000/svg">
<path opacity="0.45" d="M194.379 273.278C275.701 273.278 341.625 264.107 341.625 252.795C341.625 241.483 275.701 232.312 194.379 232.312C113.057 232.312 47.1331 241.483 47.1331 252.795C47.1331 264.107 113.057 273.278 194.379 273.278Z" fill="#E6E6E6"/>
<path d="M103.12 253.759C103.12 253.759 102.105 257.068 99.2227 257.474C96.3401 257.88 95.7109 260.783 98.3803 261.382C101.05 261.981 107.647 258.235 107.647 258.235L107.221 254.023L103.12 253.759Z" fill="#9E3FF6"/>
<path opacity="0.58" d="M273.63 236.849C273.63 236.849 264.302 234.342 262.242 225.684C262.242 225.684 276.665 222.71 277.142 237.61L273.63 236.849Z" fill="#9E3FF6"/>
<path opacity="0.73" d="M274.777 235.915C274.777 235.915 268.22 225.654 273.904 216.001C273.904 216.001 284.917 222.933 280.096 235.915H274.777Z" fill="#9E3FF6"/>
<path d="M276.452 235.915C276.452 235.915 279.842 225.035 290.236 222.933C290.236 222.933 292.266 229.978 283.557 235.915H276.452Z" fill="#9E3FF6"/>
<path d="M269.692 235.702L271.631 248.623H283.537L285.232 235.702H269.692Z" fill="#24285B"/>
<path d="M251.686 48.3332H135.844V252.795H251.686V48.3332Z" fill="#C9C9C9"/>
<path d="M241.313 72.0233H145.426V218.234H241.313V72.0233Z" fill="white"/>
<path d="M221.632 120.977H166.182V198.34H221.632V120.977Z" fill="#E6E6E6"/>
<path opacity="0.08" d="M197.911 135.481L200.195 124.438L210.345 133.411L220.241 166.956L223.286 165.434L226.057 172.021L221.642 174.315L229.884 191.184C229.884 191.184 206.539 226.171 161.371 211.017L154.774 219.269L180.656 252.764H135.844L136.575 204.481L135.844 152.31V124.397C135.844 124.397 144.796 122.367 148.521 128.061C150.729 131.43 151.517 135.534 150.714 139.48L146.907 140.018L148.521 159.141L163.909 180.344L175.581 200.198L193.77 199.944L211.106 193.6L217.298 184.181L209.584 167.941L197.911 135.481Z" fill="black"/>
<path opacity="0.56" d="M193.77 246.268C200.032 246.268 205.108 241.192 205.108 234.931C205.108 228.669 200.032 223.593 193.77 223.593C187.508 223.593 182.432 228.669 182.432 234.931C182.432 241.192 187.508 246.268 193.77 246.268Z" fill="white"/>
<path opacity="0.12" d="M216.445 56.4532H183.965V61.1932H216.445V56.4532Z" fill="black"/>
<path d="M172.201 64.6341C175.122 64.6341 177.49 62.2665 177.49 59.3459C177.49 56.4254 175.122 54.0578 172.201 54.0578C169.281 54.0578 166.913 56.4254 166.913 59.3459C166.913 62.2665 169.281 64.6341 172.201 64.6341Z" fill="white"/>
<path d="M119.858 131.888C119.858 131.888 118.508 137.521 118.904 141.459C118.943 141.84 119.057 142.209 119.239 142.546C119.421 142.882 119.667 143.18 119.964 143.421C120.261 143.662 120.602 143.843 120.969 143.952C121.336 144.061 121.72 144.097 122.101 144.058C123.338 143.999 124.532 143.585 125.541 142.865C126.549 142.145 127.328 141.149 127.785 139.998L130.241 135.248C130.632 134.246 130.702 133.147 130.442 132.104C130.182 131.06 129.605 130.123 128.79 129.422C125.907 126.61 120.497 128.417 119.858 131.888Z" fill="#F4A28C"/>
<path d="M130.15 137.531L133.296 153.193L123.684 155.578L125.258 140.384L130.15 137.531Z" fill="#F4A28C"/>
<path d="M125.207 137.704C125.207 137.704 125.582 135.501 127.237 135.918C128.891 136.334 128.353 139.511 126.059 139.48L125.207 137.704Z" fill="#F4A28C"/>
<path d="M119.188 135.481L117.27 137.45C117.16 137.561 117.08 137.698 117.037 137.849C116.995 137.999 116.991 138.157 117.027 138.31C117.062 138.462 117.136 138.602 117.24 138.718C117.345 138.834 117.477 138.922 117.625 138.973L119.756 139.714L119.188 135.481Z" fill="#F4A28C"/>
<path opacity="0.31" d="M125.004 142.85C126.077 142.173 127.033 141.326 127.836 140.343C127.836 140.343 129.236 146.078 124.466 148.077L125.004 142.85Z" fill="#CE8172"/>
<path d="M119.553 124.357C119.553 124.357 115.28 128.325 120.243 130.792C125.207 133.258 125.592 132.203 125.592 132.203C125.592 132.203 123.035 138.902 127.785 140.018L130.404 139.003C130.404 139.003 136.169 131.543 133.388 128.143C133.388 128.122 129.47 117.658 119.553 124.357Z" fill="#24285B"/>
<path d="M124.973 154.015C124.973 154.015 156.246 147.265 161.686 160.958C167.126 174.65 145.73 217.798 145.73 217.798L115.95 216.214C115.95 216.214 79.5725 171.828 124.973 154.015Z" fill="#9E3FF6"/>
<path opacity="0.08" d="M130.16 173.026L140.635 178.466C140.635 178.466 140.462 201.212 124.456 216.671L115.94 216.214C115.15 215.291 114.424 214.314 113.768 213.291C113.057 212.063 130.16 173.026 130.16 173.026Z" fill="black"/>
<path d="M124.781 138.455C124.781 138.455 126.922 134.304 128.841 136.425C130.759 138.546 127.166 142.505 124.781 138.455Z" fill="#F4A28C"/>
<path d="M71.8279 160.379L104.785 146.555L130.647 169.291C130.647 169.291 128.404 200.289 110.743 216.438C108.679 218.357 106.235 219.82 103.569 220.734C100.903 221.648 98.0753 221.991 95.2683 221.741C92.4612 221.491 89.7381 220.654 87.2754 219.284C84.8127 217.914 82.6655 216.042 80.9731 213.788C73.7767 204.258 67.23 187.683 71.8279 160.379Z" fill="#FFD200"/>
<path opacity="0.57" d="M80.77 168.306L102.603 159.171L119.756 174.244C119.756 174.244 118.264 194.818 106.561 205.526C105.191 206.801 103.568 207.773 101.797 208.379C100.026 208.985 98.1481 209.211 96.2842 209.044C94.4203 208.876 92.6125 208.318 90.9783 207.406C89.3442 206.494 87.9203 205.248 86.7991 203.75C82.0591 197.416 77.7047 186.424 80.77 168.306Z" fill="white"/>
<path d="M144.705 156.136C146.749 154.705 149.201 153.974 151.695 154.053C154.189 154.132 156.59 155.016 158.539 156.573C162.904 159.953 169.045 166.53 173.105 178.487C179.976 198.787 194.602 200.066 211.868 184.871L216.374 190.687C216.374 190.687 178.474 227.998 149.445 185.48C137.143 167.494 139.924 159.608 144.705 156.136Z" fill="#9E3FF6"/>
<path opacity="0.2" d="M144.705 156.136C146.749 154.705 149.201 153.974 151.695 154.053C154.189 154.132 156.59 155.016 158.539 156.573C162.904 159.953 169.045 166.53 173.105 178.487C179.976 198.787 194.602 200.066 211.868 184.871L216.374 190.687C216.374 190.687 178.474 227.998 149.445 185.48C137.143 167.494 139.924 159.608 144.705 156.136Z" fill="white"/>
<path d="M115.95 216.214L103.039 226.364C100.021 228.737 97.8705 232.04 96.92 235.759C95.9694 239.479 96.2722 243.408 97.7815 246.938L101.232 254.997H107.322L105.546 244.421C105.171 242.197 105.49 239.912 106.46 237.876C107.429 235.84 109.003 234.153 110.966 233.043C119.447 228.241 128.311 224.15 137.468 220.812L145.76 217.767L115.95 216.214Z" fill="#24285B"/>
<path d="M209.259 174.335L188.451 139.775L189.334 127.067L200.55 134.162L215.39 172.011L209.259 174.335Z" fill="#FFD200"/>
<path d="M206.732 174.833L208.741 178.69L211.827 177.076L219.196 191.205L223.307 189.063L215.938 174.934L219.023 173.33L217.014 169.473L206.732 174.833Z" fill="#FFD200"/>
<path opacity="0.57" d="M206.732 174.833L208.741 178.69L211.827 177.076L219.196 191.205L223.307 189.063L215.938 174.934L219.023 173.33L217.014 169.473L206.732 174.833Z" fill="white"/>
<path opacity="0.08" d="M189.334 127.067L212.131 172.021L214.841 170.61L200.55 134.162L189.334 127.067Z" fill="black"/>
<path d="M145.73 217.787L172.323 253.252L165.594 256.672C165.594 256.672 144.106 228.486 124.709 222.578L145.73 217.787Z" fill="#24285B"/>
<path d="M212.964 186.282C212.964 186.282 215.775 180.527 218.171 179.928C220.566 179.329 225.773 186.911 215.562 189.642L212.964 186.282Z" fill="#F4A28C"/>
<path d="M170.486 254.5C170.486 254.5 172.597 257.22 175.459 256.53C178.322 255.84 179.936 258.357 177.662 259.88C175.388 261.402 167.877 260.275 167.877 260.275L166.751 256.215L170.486 254.5Z" fill="#9E3FF6"/>
<path opacity="0.45" d="M58.8765 142.444C76.0692 142.444 90.0066 128.507 90.0066 111.314C90.0066 94.1213 76.0692 80.1839 58.8765 80.1839C41.6839 80.1839 27.7465 94.1213 27.7465 111.314C27.7465 128.507 41.6839 142.444 58.8765 142.444Z" fill="#E6E6E6"/>
<path d="M73.32 105.295C72.8444 102.815 71.7399 100.498 70.1122 98.5672C68.4845 96.6363 66.3882 95.1556 64.0242 94.2672C61.6602 93.3788 59.1076 93.1123 56.6111 93.4933C54.1145 93.8743 51.7576 94.89 49.7662 96.4431C47.7748 97.9962 46.2156 100.035 45.2379 102.363C44.2603 104.692 43.897 107.232 44.1828 109.742C44.4686 112.251 45.394 114.645 46.8703 116.694C48.3466 118.743 50.3243 120.378 52.614 121.444L54.3497 130.457L58.633 129.635L57.3135 122.753C58.025 122.824 58.7407 122.845 59.4551 122.814L60.6934 129.239L64.9767 128.417L63.7486 121.992C64.5084 121.712 65.2449 121.373 65.9511 120.977L67.2909 127.94L71.5742 127.118L69.8081 117.911C71.3276 116.222 72.4354 114.204 73.0447 112.015C73.654 109.827 73.7482 107.526 73.32 105.295ZM53.8219 114.806C51.3554 115.283 48.9194 113.385 48.3815 110.563C47.8435 107.741 49.3965 105.082 51.8629 104.605C54.3294 104.128 56.7552 106.036 57.3033 108.848C57.8514 111.659 56.3188 114.329 53.8523 114.795L53.8219 114.806ZM65.7481 112.512C63.2918 112.989 60.8558 111.091 60.3077 108.269C59.7596 105.447 61.3227 102.788 63.7892 102.311C66.2556 101.834 68.6815 103.742 69.2296 106.554C69.7777 109.365 68.245 112.035 65.7786 112.501L65.7481 112.512Z" fill="#C9C9C9"/>
<path opacity="0.45" d="M310.343 152.107C327.535 152.107 341.473 138.169 341.473 120.977C341.473 103.784 327.535 89.8467 310.343 89.8467C293.15 89.8467 279.213 103.784 279.213 120.977C279.213 138.169 293.15 152.107 310.343 152.107Z" fill="#E6E6E6"/>
<path d="M325.974 122.246C326.687 119.823 326.766 117.257 326.204 114.795C325.642 112.333 324.456 110.057 322.762 108.184C321.067 106.311 318.92 104.905 316.526 104.1C314.132 103.296 311.572 103.119 309.09 103.588C306.608 104.056 304.288 105.154 302.353 106.777C300.417 108.399 298.931 110.491 298.036 112.853C297.141 115.215 296.867 117.767 297.241 120.264C297.615 122.762 298.625 125.122 300.172 127.118L297.635 135.938L301.827 137.166L303.806 130.437C304.404 130.818 305.028 131.157 305.674 131.452L303.786 137.775L307.978 139.003L309.815 132.7C310.615 132.814 311.423 132.859 312.231 132.832L310.201 139.643L314.393 140.871L317.032 131.878C319.167 131.076 321.087 129.788 322.639 128.116C324.19 126.444 325.332 124.435 325.974 122.246ZM304.283 121.779C301.878 121.068 300.578 118.267 301.39 115.516C302.202 112.765 304.801 111.101 307.206 111.811C309.612 112.522 310.911 115.323 310.099 118.074C309.287 120.825 306.689 122.489 304.283 121.779ZM315.905 125.199C313.499 124.489 312.2 121.687 313.012 118.937C313.824 116.186 316.423 114.521 318.828 115.232C321.234 115.942 322.533 118.734 321.731 121.494C320.929 124.255 318.341 125.9 315.905 125.199Z" fill="#C9C9C9"/>
<path opacity="0.45" d="M222.576 87.3092H166.182V106.564H222.576V87.3092Z" fill="#E6E6E6"/>
<path d="M174.911 99.479C176.341 99.479 177.5 98.3203 177.5 96.8908C177.5 95.4614 176.341 94.3026 174.911 94.3026C173.482 94.3026 172.323 95.4614 172.323 96.8908C172.323 98.3203 173.482 99.479 174.911 99.479Z" fill="#C9C9C9"/>
<path d="M183.965 99.479C185.395 99.479 186.553 98.3203 186.553 96.8908C186.553 95.4614 185.395 94.3026 183.965 94.3026C182.536 94.3026 181.377 95.4614 181.377 96.8908C181.377 98.3203 182.536 99.479 183.965 99.479Z" fill="#C9C9C9"/>
<path d="M193.435 99.479C194.865 99.479 196.023 98.3203 196.023 96.8908C196.023 95.4614 194.865 94.3026 193.435 94.3026C192.006 94.3026 190.847 95.4614 190.847 96.8908C190.847 98.3203 192.006 99.479 193.435 99.479Z" fill="#C9C9C9"/>
<path d="M202.489 99.479C203.918 99.479 205.077 98.3203 205.077 96.8908C205.077 95.4614 203.918 94.3026 202.489 94.3026C201.059 94.3026 199.901 95.4614 199.901 96.8908C199.901 98.3203 201.059 99.479 202.489 99.479Z" fill="#C9C9C9"/>
<path d="M212.253 99.479C213.683 99.479 214.841 98.3203 214.841 96.8908C214.841 95.4614 213.683 94.3026 212.253 94.3026C210.824 94.3026 209.665 95.4614 209.665 96.8908C209.665 98.3203 210.824 99.479 212.253 99.479Z" fill="#C9C9C9"/>
</svg>
