<svg width="375" height="306" viewBox="0 0 375 306" fill="none" xmlns="http://www.w3.org/2000/svg">
<path opacity="0.3" d="M283.151 61.7414C317.224 71.5463 349.542 98.8802 350.232 134.466C350.922 170.052 339.311 206.389 276.959 220.883C218.394 234.494 79.5622 240.29 42.941 196.29C8.4107 154.837 20.0426 87.025 81.1862 64.9691C124.07 49.47 216.597 42.5883 283.151 61.7414Z" fill="#E6E6E6"/>
<path opacity="0.49" d="M132.413 123.677C132.413 121.302 131.47 119.025 129.791 117.346C128.112 115.668 125.835 114.724 123.461 114.724C122.978 114.728 122.496 114.772 122.02 114.856C120.99 112.934 119.458 111.327 117.586 110.208C115.714 109.089 113.574 108.5 111.393 108.502H110.956C111.242 107.367 111.388 106.202 111.393 105.031C111.293 101.3 109.741 97.7553 107.067 95.1515C104.393 92.5477 100.809 91.0907 97.0762 91.0907C93.3439 91.0907 89.759 92.5477 87.085 95.1515C84.4109 97.7553 82.859 101.3 82.7596 105.031C82.764 106.202 82.9106 107.367 83.1961 108.502H82.7596C81.146 108.456 79.5394 108.733 78.0349 109.318C76.5304 109.903 75.1586 110.784 74.0007 111.909C72.8428 113.034 71.9223 114.38 71.2937 115.867C70.6652 117.353 70.3413 118.951 70.3413 120.566C70.3413 122.18 70.6652 123.778 71.2937 125.265C71.9223 126.752 72.8428 128.097 74.0007 129.222C75.1586 130.347 76.5304 131.228 78.0349 131.813C79.5394 132.398 81.146 132.676 82.7596 132.629H124.628V132.548C126.781 132.265 128.758 131.209 130.19 129.577C131.622 127.945 132.412 125.848 132.413 123.677Z" fill="#E6E6E6"/>
<path opacity="0.49" d="M315.255 157.222C315.257 156.506 315.117 155.797 314.843 155.135C314.57 154.473 314.168 153.872 313.662 153.365C313.155 152.859 312.554 152.457 311.892 152.184C311.23 151.911 310.521 151.771 309.805 151.772C309.512 151.775 309.221 151.799 308.932 151.843C308.304 150.674 307.372 149.697 306.233 149.016C305.095 148.335 303.793 147.976 302.466 147.976H302.192C302.372 147.286 302.464 146.577 302.466 145.865C302.466 143.552 301.548 141.334 299.913 139.699C298.278 138.064 296.06 137.146 293.747 137.146C291.435 137.146 289.217 138.064 287.582 139.699C285.947 141.334 285.029 143.552 285.029 145.865C285.033 146.576 285.121 147.285 285.293 147.976H285.029C284.041 147.939 283.057 148.102 282.134 148.454C281.211 148.807 280.368 149.342 279.657 150.027C278.945 150.713 278.379 151.535 277.993 152.444C277.606 153.353 277.407 154.331 277.407 155.319C277.407 156.307 277.606 157.285 277.993 158.194C278.379 159.104 278.945 159.926 279.657 160.611C280.368 161.297 281.211 161.832 282.134 162.184C283.057 162.537 284.041 162.7 285.029 162.663H310.515V162.612C311.825 162.442 313.028 161.801 313.9 160.81C314.772 159.818 315.254 158.543 315.255 157.222Z" fill="#E6E6E6"/>
<path opacity="0.49" d="M157.474 81.4628C157.474 80.0684 158.028 78.7311 159.014 77.745C160 76.759 161.337 76.2051 162.731 76.2051C163.014 76.2065 163.296 76.2337 163.574 76.2863C164.181 75.159 165.082 74.2167 166.181 73.5592C167.279 72.9017 168.535 72.5534 169.816 72.5511H170.08C169.904 71.8887 169.816 71.2063 169.816 70.5211C169.807 69.3247 170.054 68.1402 170.54 67.0467C171.025 65.9532 171.738 64.9758 172.631 64.1797C173.525 63.3836 174.577 62.7872 175.719 62.4302C176.861 62.0731 178.066 61.9637 179.254 62.1093C180.441 62.2548 181.584 62.6519 182.606 63.2741C183.628 63.8963 184.505 64.7293 185.18 65.7175C185.854 66.7057 186.31 67.8264 186.517 69.0048C186.725 70.1832 186.678 71.3922 186.381 72.5511H186.645C188.529 72.5511 190.336 73.2997 191.669 74.6321C193.001 75.9646 193.75 77.7717 193.75 79.6561C193.75 81.5405 193.001 83.3477 191.669 84.6801C190.336 86.0125 188.529 86.7611 186.645 86.7611H162.041C160.762 86.592 159.591 85.9587 158.748 84.9818C157.906 84.0048 157.453 82.7524 157.474 81.4628Z" fill="#E6E6E6"/>
<path d="M160.973 167.32L159.67 167.196L158.166 182.958L159.469 183.083L160.973 167.32Z" fill="#24285B"/>
<path d="M173.165 169.94L147.192 167.464L160.701 163.241L173.165 169.94Z" fill="#FFD200"/>
<path d="M132.847 166.574L131.551 166.76L133.807 182.433L135.103 182.246L132.847 166.574Z" fill="#24285B"/>
<path d="M145.324 166.236L119.502 169.961L131.632 162.663L145.324 166.236Z" fill="#FFD200"/>
<path d="M104.991 169.254L103.682 169.292L104.135 185.119L105.444 185.082L104.991 169.254Z" fill="#24285B"/>
<path d="M117.412 170.346L91.3362 171.087L104.217 165.231L117.412 170.346Z" fill="#FFD200"/>
<path d="M177.865 126.843C179.696 126.031 181.675 125.605 183.679 125.593C185.682 125.581 187.666 125.982 189.507 126.772C188.322 125.089 187.525 123.163 187.174 121.134C186.823 119.105 186.926 117.023 187.477 115.039C194.653 118.622 195.902 125.189 195.973 129.046C196.179 126.089 197.323 123.275 199.237 121.011C201.152 118.748 203.738 117.154 206.62 116.46C206.781 118.817 206.374 121.179 205.432 123.346C204.491 125.513 203.043 127.423 201.21 128.914C208.427 126.681 214.831 131.056 214.831 131.056C207.645 136.862 202.184 134.547 198.987 132.852C201.484 135.806 205.706 143.621 208.122 153.639C209.036 157.436 209.137 163.13 209.208 168.925H202.601C202.601 158.166 201.403 143.429 195.272 133.197C189.548 143.114 179.793 140.434 179.793 140.434C181.149 137.117 183.678 134.415 186.898 132.842C185.069 132.494 183.328 131.785 181.776 130.755C180.225 129.724 178.895 128.395 177.865 126.843Z" fill="#E6E6E6"/>
<path d="M259.704 136.872C258.101 135.672 256.268 134.816 254.319 134.356C252.37 133.897 250.347 133.845 248.377 134.202C249.908 132.821 251.114 131.119 251.909 129.216C252.704 127.314 253.068 125.259 252.975 123.2C245.18 125.087 242.48 131.238 241.546 134.953C242.013 132.026 241.534 129.025 240.18 126.388C238.826 123.75 236.666 121.613 234.015 120.287C233.315 122.559 233.176 124.968 233.609 127.306C234.042 129.645 235.034 131.843 236.502 133.715C229.965 129.919 222.748 132.751 222.748 132.751C228.442 140.018 234.928 139.663 238.42 138.719C232.524 143.258 227.747 149.088 224.454 155.761C222.708 159.252 221.043 165.271 219.724 170.915L226.169 172.397C228.524 161.891 233.051 147.813 241.323 139.216C244.672 150.168 254.782 149.742 254.782 149.742C254.207 146.208 252.349 143.01 249.565 140.759C251.429 140.819 253.286 140.506 255.027 139.839C256.768 139.171 258.359 138.162 259.704 136.872Z" fill="#E6E6E6"/>
<path d="M168.456 191.57C168.456 174.315 188.32 160.399 212.832 160.399C237.344 160.399 257.208 174.315 257.208 191.57H168.456Z" fill="#E6E6E6"/>
<path opacity="0.09" d="M168.456 191.57C168.456 174.315 188.32 160.399 212.832 160.399C237.344 160.399 257.208 174.315 257.208 191.57H168.456Z" fill="black"/>
<path d="M71.3408 198.34C71.3408 186.942 98.6849 177.705 132.413 177.705C166.142 177.705 193.486 186.942 193.486 198.34H71.3408Z" fill="#E6E6E6"/>
<path d="M316.199 189.012H71.6656C68.6264 189.012 65.7117 190.22 63.5626 192.369C61.4136 194.518 60.2063 197.432 60.2063 200.472C60.2063 203.511 61.4136 206.425 63.5626 208.575C65.7117 210.724 68.6264 211.931 71.6656 211.931H57.1613C54.122 211.931 51.2073 213.138 49.0583 215.287C46.9092 217.436 45.7019 220.351 45.7019 223.39C45.7019 226.429 46.9092 229.344 49.0583 231.493C51.2073 233.642 54.122 234.85 57.1613 234.85H72.6806C70.6095 236.195 69.0288 238.173 68.1744 240.49C67.32 242.808 67.2377 245.339 67.9398 247.706C68.6419 250.074 70.0907 252.151 72.0701 253.628C74.0495 255.105 76.4533 255.902 78.9228 255.901H246.743C249.212 255.9 251.614 255.101 253.592 253.624C255.569 252.146 257.016 250.069 257.717 247.702C258.418 245.334 258.335 242.804 257.48 240.488C256.626 238.172 255.045 236.194 252.975 234.85H301.695C304.734 234.85 307.649 233.642 309.798 231.493C311.947 229.344 313.154 226.429 313.154 223.39C313.154 220.351 311.947 217.436 309.798 215.287C307.649 213.138 304.734 211.931 301.695 211.931H316.21C319.249 211.931 322.163 210.724 324.313 208.575C326.462 206.425 327.669 203.511 327.669 200.472C327.669 197.432 326.462 194.518 324.313 192.369C322.163 190.22 319.249 189.012 316.21 189.012H316.199Z" fill="#9E3FF6"/>
<path d="M278.786 114.278C291.786 114.278 302.324 103.74 302.324 90.7399C302.324 77.7403 291.786 67.2021 278.786 67.2021C265.787 67.2021 255.249 77.7403 255.249 90.7399C255.249 103.74 265.787 114.278 278.786 114.278Z" fill="#FFD200"/>
<path d="M284.694 192.839H259.228C257.832 192.839 256.7 193.97 256.7 195.366C256.7 196.762 257.832 197.893 259.228 197.893H284.694C286.09 197.893 287.221 196.762 287.221 195.366C287.221 193.97 286.09 192.839 284.694 192.839Z" fill="#FFD200"/>
<path d="M280.238 200.309H254.771C253.376 200.309 252.244 201.441 252.244 202.836C252.244 204.232 253.376 205.364 254.771 205.364H280.238C281.634 205.364 282.765 204.232 282.765 202.836C282.765 201.441 281.634 200.309 280.238 200.309Z" fill="#FFD200"/>
<path opacity="0.44" d="M154.591 226.161H110.621C109.024 226.161 107.729 227.456 107.729 229.054C107.729 230.652 109.024 231.947 110.621 231.947H154.591C156.189 231.947 157.484 230.652 157.484 229.054C157.484 227.456 156.189 226.161 154.591 226.161Z" fill="white"/>
<path opacity="0.44" d="M199.718 209.941H155.748C154.151 209.941 152.855 211.237 152.855 212.834C152.855 214.432 154.151 215.727 155.748 215.727H199.718C201.316 215.727 202.611 214.432 202.611 212.834C202.611 211.237 201.316 209.941 199.718 209.941Z" fill="white"/>
<path opacity="0.44" d="M228.006 235.205H200.205C198.608 235.205 197.312 236.5 197.312 238.098C197.312 239.695 198.608 240.99 200.205 240.99H228.006C229.604 240.99 230.899 239.695 230.899 238.098C230.899 236.5 229.604 235.205 228.006 235.205Z" fill="white"/>
<path opacity="0.44" d="M233.994 192.575H206.194C204.596 192.575 203.301 193.87 203.301 195.468C203.301 197.065 204.596 198.36 206.194 198.36H233.994C235.592 198.36 236.887 197.065 236.887 195.468C236.887 193.87 235.592 192.575 233.994 192.575Z" fill="white"/>
<path opacity="0.44" d="M127.866 199.944H83.8964C82.2988 199.944 81.0037 201.239 81.0037 202.837C81.0037 204.434 82.2988 205.729 83.8964 205.729H127.866C129.464 205.729 130.759 204.434 130.759 202.837C130.759 201.239 129.464 199.944 127.866 199.944Z" fill="white"/>
<path d="M286.521 207.78H268.839C267.444 207.78 266.312 208.911 266.312 210.307C266.312 211.703 267.444 212.834 268.839 212.834H286.521C287.916 212.834 289.048 211.703 289.048 210.307C289.048 208.911 287.916 207.78 286.521 207.78Z" fill="#FFD200"/>
</svg>
