<svg width="375" height="306" viewBox="0 0 375 306" fill="none" xmlns="http://www.w3.org/2000/svg">
<path d="M89.286 109.467C89.286 109.467 109.068 99.3167 131.398 107.021C153.728 114.724 110.347 127.321 110.347 127.321L89.286 109.467Z" fill="#9E3FF6"/>
<path opacity="0.08" d="M89.286 109.467C89.286 109.467 109.068 99.3167 131.398 107.021C153.728 114.724 110.347 127.321 110.347 127.321L89.286 109.467Z" fill="black"/>
<path d="M65.2 116.785C65.2 116.785 51.6295 124.58 48.2495 143.865C44.8696 163.15 91.2145 189.205 91.2145 189.205L120.01 167.596C120.01 167.596 137.113 92.2624 76.9639 112.481L65.2 116.785Z" fill="#9E3FF6"/>
<path opacity="0.45" d="M194.755 282.078C273.453 282.078 337.25 272.907 337.25 261.595C337.25 250.283 273.453 241.112 194.755 241.112C116.056 241.112 52.2588 250.283 52.2588 261.595C52.2588 272.907 116.056 282.078 194.755 282.078Z" fill="#E6E6E6"/>
<path d="M273.894 73.5966H110.357V261.595H273.894V73.5966Z" fill="#E6E6E6"/>
<path d="M254.812 180.151H231.964V201.253H254.812V180.151Z" fill="#24285B"/>
<path d="M254.812 211.363H231.964V232.464H254.812V211.363Z" fill="#A5A5A5"/>
<path opacity="0.08" d="M238.298 195.041C238.298 195.041 196.683 201.953 216.181 261.595H260.719L238.298 195.041Z" fill="black"/>
<path d="M91.2246 189.205L110.804 215.25L110.357 174.822L91.2246 189.205Z" fill="#24285B"/>
<path d="M276.787 59.9347H107.668V107.021H276.787V59.9347Z" fill="#9E3FF6"/>
<path d="M264.444 261.605C285.662 261.605 302.862 244.405 302.862 223.187C302.862 201.97 285.662 184.77 264.444 184.77C243.227 184.77 226.027 201.97 226.027 223.187C226.027 244.405 243.227 261.605 264.444 261.605Z" fill="#FFD200"/>
<path d="M252.934 222.71L261.196 236.93L278.431 211.17" stroke="white" stroke-width="10.15" stroke-linecap="round" stroke-linejoin="round"/>
<path d="M153.901 42.4462H140.34V83.4826H153.901V42.4462Z" fill="#F2F2F2"/>
<path opacity="0.08" d="M162.853 59.62H153.901V83.4725H162.853V59.62Z" fill="black"/>
<path opacity="0.08" d="M252.336 59.62H243.383V83.4725H252.336V59.62Z" fill="black"/>
<path d="M243.383 42.4462H229.823V83.4826H243.383V42.4462Z" fill="#F2F2F2"/>
<path d="M169.755 125.778H132.637V137.004H169.755V125.778Z" fill="#24285B"/>
<path d="M156.591 149.133H133.743V170.235H156.591V149.133Z" fill="white"/>
<path opacity="0.32" d="M189.751 149.133H166.903V170.235H189.751V149.133Z" fill="#A5A5A5"/>
<path d="M222.566 149.133H199.718V170.235H222.566V149.133Z" fill="#FFD200"/>
<path d="M254.812 149.133H231.964V170.235H254.812V149.133Z" fill="#24285B"/>
<path d="M64.5605 117.181C64.5605 117.181 63.982 124.58 70.752 128.132C77.5221 131.685 76.842 122.662 76.842 122.662C76.842 122.662 79.3085 125.321 83.2264 121.819C87.1443 118.317 77.9382 111.903 77.9382 111.903L64.5605 117.181Z" fill="white"/>
<path d="M156.591 180.151H133.743V201.253H156.591V180.151Z" fill="white"/>
<path opacity="0.32" d="M189.751 180.151H166.903V201.253H189.751V180.151Z" fill="#A5A5A5"/>
<path opacity="0.32" d="M222.566 180.151H199.718V201.253H222.566V180.151Z" fill="#A5A5A5"/>
<path d="M156.591 211.363H133.743V232.464H156.591V211.363Z" fill="white"/>
<path opacity="0.32" d="M189.751 211.363H166.903V232.464H189.751V211.363Z" fill="#A5A5A5"/>
<path opacity="0.32" d="M222.566 211.363H199.718V232.464H222.566V211.363Z" fill="#A5A5A5"/>
<path d="M75.1064 109.01C75.6146 110.555 76.211 112.07 76.8928 113.547C77.8469 115.577 78.73 118.845 75.8778 121.028C71.5133 124.397 66.3064 117.424 66.3064 117.424C66.3064 117.424 59.5972 111.832 64.2764 108.157C68.58 104.859 72.7009 101.946 75.1064 109.01Z" fill="#4F2D24"/>
<path d="M58.9882 107.325C58.0685 108.337 57.5552 109.652 57.5469 111.02C57.5008 111.715 57.6599 112.409 58.0045 113.016C58.3492 113.622 58.8641 114.114 59.4855 114.43C62.6523 115.922 66.3165 117.475 66.3165 117.475C66.3165 117.475 62.7132 114.237 66.3165 112.847C69.9197 111.456 73.9493 112.654 75.1064 109.061C76.2635 105.468 77.1364 103.427 75.1064 101.184C73.0764 98.9411 71.97 95.5916 68.6205 98.5757C65.271 101.56 65.5755 97.9464 62.6422 96.8604C59.7088 95.7743 56.1665 97.4592 57.5672 100.068C58.7446 102.301 60.7543 105.204 58.9882 107.325Z" fill="#24285B"/>
<path d="M70.7419 139.988C68.519 130.244 55.3849 128.264 50.0257 136.699C43.3166 147.286 34.75 164.652 37.795 181.085C42.5249 207.13 62.8756 230.14 110.388 215.25V207.475C110.388 207.475 93.6403 211.058 79.1258 205.536C64.6113 200.015 58.0138 182.719 64.8346 168.601C68.7525 160.43 72.8125 149.082 70.7419 139.988Z" fill="#9E3FF6"/>
<path opacity="0.2" d="M70.7419 139.988C68.519 130.244 55.3849 128.264 50.0257 136.699C43.3166 147.286 34.75 164.652 37.795 181.085C42.5249 207.13 62.8756 230.14 110.388 215.25V207.475C110.388 207.475 93.6403 211.058 79.1258 205.536C64.6113 200.015 58.0138 182.719 64.8346 168.601C68.7525 160.43 72.8125 149.082 70.7419 139.988Z" fill="white"/>
<path d="M110.357 215.25C110.357 215.25 103.252 210.855 107.668 204.258C112.083 197.66 121.025 206.46 110.357 215.25Z" fill="#4F2D24"/>
<path opacity="0.32" d="M273.894 107.021H110.357V116.785H273.894V107.021Z" fill="#A5A5A5"/>
<path d="M66.7732 117.576C66.7732 117.576 65.3116 115.404 63.3425 116.561C61.3734 117.719 64.388 121.596 66.7732 117.576Z" fill="#4F2D24"/>
<path d="M76.1823 113.983C76.1823 113.983 74.335 112.116 75.8271 110.37C77.3191 108.624 80.5976 112.4 76.1823 113.983Z" fill="#4F2D24"/>
<path d="M172.079 59.9347C172.079 59.9347 177.489 51.8147 183.579 55.8747C189.669 59.9347 184.259 65.3142 172.079 59.9347Z" fill="#4F2D24"/>
<path opacity="0.08" d="M89.2859 109.467C89.2859 109.467 116.894 152.827 78.6183 181.247L91.2144 189.205L110.357 174.823V113.415C110.357 113.415 103.323 107.325 89.2859 109.467Z" fill="black"/>
</svg>
