<svg width="375" height="306" viewBox="0 0 375 306" fill="none" xmlns="http://www.w3.org/2000/svg">
<path opacity="0.3" d="M179.875 264.518C268.646 264.518 340.61 256.352 340.61 246.278C340.61 236.205 268.646 228.039 179.875 228.039C91.103 228.039 19.1393 236.205 19.1393 246.278C19.1393 256.352 91.103 264.518 179.875 264.518Z" fill="#E6E6E6"/>
<path d="M68.245 137.044C68.245 137.044 44.3621 148.483 41.246 174.843C38.13 201.202 29.3299 252.105 94.1174 249.202C158.905 246.299 189.456 242.685 174.181 193.184C158.905 143.682 68.245 137.044 68.245 137.044Z" fill="#FFD200"/>
<path opacity="0.09" d="M65.7988 150.737C65.1291 154.456 65.5926 158.292 67.1292 161.745C68.6658 165.198 71.2045 168.11 74.4162 170.103C83.2061 175.898 96.7462 196.493 107.231 206.907C108.867 208.529 110.16 210.464 111.032 212.597C111.904 214.73 112.337 217.016 112.306 219.32C112.306 221.198 113.067 223.279 115.544 225.309C122.832 231.267 153.414 234.241 170.516 215.91C187.619 197.579 165.066 188.505 165.066 188.505L89.895 147.813L65.7988 150.737Z" fill="black"/>
<path d="M231.965 240.473C231.965 240.473 233.558 244.533 237.557 245.406C241.556 246.278 243.728 251.232 234.989 250.481C226.25 249.729 221.449 251.049 222.708 246.248C223.966 241.447 223.398 240.726 223.398 240.726L231.965 240.473Z" fill="#F4A28C"/>
<path d="M173.277 237.093C173.277 237.093 172.607 241.366 175.581 244.198C178.555 247.03 177.926 252.318 170.811 247.243C163.696 242.168 158.874 240.838 162.396 237.347C165.918 233.855 165.797 232.941 165.797 232.941L173.277 237.093Z" fill="#F4A28C"/>
<path d="M180.91 176.345C180.91 176.345 234.35 176.893 233.832 240.625L221.226 242.767C221.226 242.767 218.8 175.462 149.354 207.526L152.977 181.014L180.91 176.345Z" fill="#24285B"/>
<path opacity="0.09" d="M180.91 176.345C180.91 176.345 234.35 176.893 233.832 240.625L221.226 242.767C221.226 242.767 218.8 175.462 149.354 207.526L152.977 181.014L180.91 176.345Z" fill="black"/>
<path d="M185.102 117.678L189.741 118.916L186.442 115.364L185.102 117.678Z" fill="#FFD200"/>
<path d="M112.205 149.224C112.205 149.224 121.441 172.569 143.984 168.458C166.527 164.348 175.094 117.059 175.094 117.059C175.094 117.059 184.006 111.263 179.692 104.798C175.378 98.3321 168.365 112.319 168.365 112.319C168.365 112.319 158.651 152.168 137.63 139.247L112.205 149.224Z" fill="#F4A28C"/>
<path opacity="0.09" d="M112.205 149.224C112.205 149.224 121.441 172.569 143.984 168.458C166.527 164.348 175.094 117.059 175.094 117.059C175.094 117.059 184.006 111.263 179.692 104.798C175.378 98.3321 168.365 112.319 168.365 112.319C168.365 112.319 158.651 152.168 137.63 139.247L112.205 149.224Z" fill="black"/>
<path d="M112.489 101.803L117.361 102.818C117.361 102.818 155.017 123.26 148.014 143.733C141.01 164.206 156.306 183.643 156.306 183.643L123.562 206.704C123.562 206.704 80.7904 185.48 87.195 127.016C87.195 127.016 90.169 99.7836 112.489 101.803Z" fill="#9E3FF6"/>
<path d="M199.025 113.361L192.851 110.392L167.503 163.109L173.677 166.078L199.025 113.361Z" fill="#E6E6E6"/>
<path opacity="0.58" d="M286.47 236.23C286.47 236.23 276.076 233.388 273.813 223.715C273.813 223.715 289.921 220.457 290.378 237.083L286.47 236.23Z" fill="#9E3FF6"/>
<path opacity="0.73" d="M287.718 235.215C287.718 235.215 280.451 223.735 286.846 212.997C286.846 212.997 299.097 220.772 293.656 235.245L287.718 235.215Z" fill="#9E3FF6"/>
<path d="M289.586 235.215C289.586 235.215 293.423 223.086 305.024 220.792C305.024 220.792 307.206 228.668 297.513 235.245L289.586 235.215Z" fill="#9E3FF6"/>
<path d="M282.045 234.921L284.156 249.344L297.432 249.395L299.391 234.992L282.045 234.921Z" fill="#24285B"/>
<path opacity="0.66" d="M263.927 35.5543H190.258V87.1366H263.927V35.5543Z" fill="#E6E6E6"/>
<path opacity="0.43" d="M330.024 107.812H263.49V154.401H330.024V107.812Z" fill="#E6E6E6"/>
<path d="M209.695 59.5286C214.443 59.5286 218.292 55.6796 218.292 50.9316C218.292 46.1836 214.443 42.3345 209.695 42.3345C204.947 42.3345 201.098 46.1836 201.098 50.9316C201.098 55.6796 204.947 59.5286 209.695 59.5286Z" fill="#E6E6E6"/>
<path opacity="0.45" d="M253.026 43.6337H228.818V77.2607H253.026V43.6337Z" fill="#C1C1C1"/>
<path d="M219.206 65.9841H202.58V77.2607H219.206V65.9841Z" fill="#C1C1C1"/>
<path d="M110.702 76.1239L103.922 100.027L117.361 102.818L116.904 84.3048L110.702 76.1239Z" fill="#F4A28C"/>
<path opacity="0.31" d="M117.178 88.3546C115.547 87.7185 114.137 86.6218 113.118 85.198C113.118 85.198 112.773 89.7351 117.178 94.7796V88.3546Z" fill="#CE8172"/>
<path d="M124.618 76.875C124.618 76.875 123.948 84.4266 121.817 89.1464C121.611 89.6065 121.316 90.021 120.948 90.3657C120.58 90.7105 120.147 90.9785 119.675 91.1543C119.203 91.33 118.7 91.4099 118.196 91.3893C117.693 91.3687 117.198 91.248 116.742 91.0343C114.377 89.9279 111.504 87.7457 111.372 83.6552L110.296 76.7431C110.229 75.336 110.598 73.9425 111.354 72.7539C112.11 71.5653 113.216 70.64 114.519 70.105C119.289 67.74 125.258 72.2466 124.618 76.875Z" fill="#F4A28C"/>
<path d="M115.554 81.8079C115.554 81.8079 116.011 78.9253 113.808 78.7629C111.606 78.6005 110.926 82.762 113.808 83.6654L115.554 81.8079Z" fill="#F4A28C"/>
<path d="M123.948 81.5541L125.521 84.8021C125.61 84.9869 125.651 85.1912 125.64 85.3959C125.629 85.6006 125.566 85.7993 125.458 85.9734C125.35 86.1475 125.199 86.2914 125.02 86.3919C124.842 86.4923 124.64 86.546 124.435 86.5479H121.492L123.948 81.5541Z" fill="#F4A28C"/>
<path d="M186.447 115.362L163.258 101.974L161.924 104.286L185.112 117.674L186.447 115.362Z" fill="#24285B"/>
<path opacity="0.18" d="M131.073 194.006L123.562 206.704C123.562 206.704 96.33 193.509 88.5247 157.801C80.7193 122.093 106.47 136.009 106.47 136.009L131.073 194.006Z" fill="black"/>
<path d="M123.562 206.704C123.562 206.704 148.795 155.263 186.107 155.456C223.418 155.649 174.942 238.463 174.942 238.463L162.64 233.459C162.64 233.459 180.91 197.934 176.261 186.495C171.613 175.056 164.508 253.962 123.562 206.704Z" fill="#24285B"/>
<path d="M101.973 104.686C101.973 104.686 113.199 98.9919 118.904 110.563C124.608 122.134 120.112 171.899 143.264 174.508C166.416 177.116 178.159 153 178.159 153C178.159 153 180.068 142.85 183.234 141.165C186.401 139.48 189.192 150.148 183.234 156.39C183.234 156.39 173.023 194.747 140.604 195.61C108.185 196.472 70.0111 130.954 101.973 104.686Z" fill="#F4A28C"/>
<path d="M124.669 67.0295C124.669 67.0295 132.048 75.7077 122.497 77.5246C112.946 79.3414 110.976 81.0568 111.89 90.7196C112.803 100.382 116.589 109.284 103.922 115.343C91.255 121.403 102.146 131.583 99.8115 143.459C97.477 155.334 86.3424 163.536 72.0817 155.436C57.8209 147.336 49.0209 126.61 64.3068 114.197C79.5927 101.783 98.8168 98.7685 98.8168 78.7527C98.8168 58.7369 114.793 57.7016 124.669 67.0295Z" fill="#24285B"/>
<path opacity="0.43" d="M284.633 141.957C290.317 141.957 294.925 137.349 294.925 131.665C294.925 125.981 290.317 121.373 284.633 121.373C278.949 121.373 274.341 125.981 274.341 131.665C274.341 137.349 278.949 141.957 284.633 141.957Z" fill="#C1C1C1"/>
<path opacity="0.43" d="M301.289 115.892H283.395V133.786H301.289V115.892Z" fill="#C1C1C1"/>
<path opacity="0.43" d="M320.483 115.892H307.135V145.55H320.483V115.892Z" fill="#C1C1C1"/>
<path d="M185.697 155.717L176.241 152.112L174.205 157.452L183.661 161.057L185.697 155.717Z" fill="#9E3FF6"/>
<path opacity="0.44" d="M185.697 155.717L176.241 152.112L174.205 157.452L183.661 161.057L185.697 155.717Z" fill="white"/>
</svg>
