<svg width="375" height="306" viewBox="0 0 375 306" fill="none" xmlns="http://www.w3.org/2000/svg">
<path d="M341.143 102.23L296.24 167.677L294.342 152.949L162.615 239.945L159.113 197.203L59.8563 256.185L48.0924 226.76L185.128 154.705L189.137 193.387L290.606 123.9L289.053 111.882L341.143 102.23Z" fill="#E6E6E6"/>
<path d="M313.393 140.363L312.804 140.749L313.251 140.028L313.393 140.363Z" fill="#E6E6E6"/>
<path opacity="0.45" d="M174.125 277.236C251.041 277.236 313.393 273.491 313.393 268.872C313.393 264.253 251.041 260.509 174.125 260.509C97.2093 260.509 34.8568 264.253 34.8568 268.872C34.8568 273.491 97.2093 277.236 174.125 277.236Z" fill="#E6E6E6"/>
<path d="M274.823 147.032C275.449 147.901 275.862 148.906 276.027 149.965C276.191 151.023 276.104 152.106 275.772 153.125C275.44 154.143 274.872 155.069 274.114 155.827C273.357 156.585 272.431 157.153 271.413 157.486C266.632 159.1 258.989 160.267 248.626 157.486C229.767 152.411 223.19 121.028 223.19 121.028C223.19 121.028 219.638 115.75 222.297 113.486C224.956 111.223 227.118 119.485 227.118 119.485C227.118 119.485 231.016 134.537 245.094 140.038C256.533 144.504 269.352 139.48 274.823 147.032Z" fill="#F4A28C"/>
<path opacity="0.09" d="M274.823 147.032C275.449 147.901 275.862 148.906 276.027 149.965C276.191 151.023 276.104 152.106 275.772 153.125C275.44 154.143 274.872 155.069 274.114 155.827C273.357 156.585 272.431 157.153 271.413 157.486C266.632 159.1 258.989 160.267 248.626 157.486C229.767 152.411 223.19 121.028 223.19 121.028C223.19 121.028 219.638 115.75 222.297 113.486C224.956 111.223 227.118 119.485 227.118 119.485C227.118 119.485 231.016 134.537 245.094 140.038C256.533 144.504 269.352 139.48 274.823 147.032Z" fill="black"/>
<path d="M279.533 213.819L261.263 262.427L257.67 262.224L263.942 211.413L279.533 213.819Z" fill="#F4A28C"/>
<path d="M292.301 208.52L288.049 228.536L302.045 218.762L304.451 221.908C304.451 221.908 290.018 242.716 279.543 239.64C269.068 236.565 277.594 204.176 277.594 204.176L292.301 208.52Z" fill="#F4A28C"/>
<path d="M274.559 124.905L278.254 141.48L268.967 142.86L270.012 130.244L274.559 124.905Z" fill="#F4A28C"/>
<path opacity="0.31" d="M269.667 132.994C270.818 132.622 271.832 131.915 272.58 130.964C272.58 130.964 272.641 134.07 269.423 137.349L269.667 132.994Z" fill="#CE8172"/>
<path d="M265.028 124.834C265.129 127.714 265.613 130.568 266.47 133.319C266.593 133.639 266.779 133.932 267.016 134.18C267.252 134.429 267.536 134.628 267.85 134.767C268.164 134.905 268.502 134.981 268.845 134.988C269.188 134.996 269.53 134.936 269.85 134.811C270.903 134.471 271.835 133.834 272.535 132.977C273.236 132.12 273.674 131.079 273.798 129.98L274.813 125.301C274.915 124.342 274.717 123.374 274.246 122.533C273.775 121.691 273.055 121.016 272.184 120.601C269.027 118.866 264.775 121.677 265.028 124.834Z" fill="#F4A28C"/>
<path d="M271.027 128.64C271.027 128.64 270.834 126.61 272.336 126.61C273.839 126.61 274.143 129.452 272.154 129.96L271.027 128.64Z" fill="#F4A28C"/>
<path d="M265.302 128.092L264.125 130.244C264.056 130.366 264.019 130.504 264.018 130.645C264.017 130.785 264.052 130.924 264.118 131.048C264.185 131.171 264.282 131.276 264.401 131.352C264.519 131.428 264.655 131.473 264.795 131.482L266.825 131.614L265.302 128.092Z" fill="#F4A28C"/>
<path d="M268.967 142.85C268.967 142.85 246.373 151.376 252.513 166.936C256.959 178.202 262.897 176.132 264.389 185.115L265.962 193.955L288.952 187.094C288.952 187.094 286.252 174.153 287.744 165.566C289.236 156.979 293.783 135.623 268.967 142.85Z" fill="#9E3FF6"/>
<path opacity="0.09" d="M275.016 147.854C275.016 147.854 266.246 160.146 274.001 172.701C275.31 174.823 276.467 177.055 277.584 179.288L282.456 189.053L288.972 187.104L288.069 181.674L275.016 147.854Z" fill="black"/>
<path d="M272.336 126.61C272.336 126.61 268.337 142.627 273.696 144.799C279.056 146.971 287.775 145.103 288.008 138.475C288.241 131.847 281.685 131.157 280.335 122.134C278.985 113.11 261.73 116.237 262.298 121.454C262.866 126.671 272.336 126.61 272.336 126.61Z" fill="#FFD200"/>
<path d="M288.952 187.104L265.962 193.965L261.669 221.005L292.484 220.609C292.484 220.609 300.391 200.309 288.952 187.104Z" fill="#24285B"/>
<path d="M257.933 262.234C257.933 262.234 255.812 264.64 253.285 264.366C250.757 264.092 250.179 267.665 254.3 267.522C255.575 267.485 256.844 267.343 258.096 267.096C259.247 266.896 260.431 267.004 261.527 267.411C261.741 267.471 261.969 267.465 262.181 267.395C262.393 267.324 262.578 267.192 262.714 267.015C263.952 265.716 261.283 262.427 261.283 262.427L257.933 262.234Z" fill="#9E3FF6"/>
<path d="M304.126 222.02C304.126 222.02 307.323 222.132 308.734 224.253C310.145 226.374 313.251 224.537 310.531 221.472C309.695 220.508 308.775 219.621 307.78 218.823C306.896 218.056 306.225 217.073 305.831 215.971C305.748 215.771 305.606 215.602 305.425 215.484C305.244 215.367 305.032 215.306 304.816 215.311C303.03 215.179 302.086 218.802 302.086 218.802L304.126 222.02Z" fill="#9E3FF6"/>
<path d="M102.74 262.326C102.74 262.326 104.344 264.914 106.922 264.579C109.5 264.244 110.677 266.609 108.546 267.715C106.414 268.822 99.9285 267.177 99.9285 267.177L99.1469 262.508L102.74 262.326Z" fill="#9E3FF6"/>
<path d="M118.219 153.518C118.219 153.518 143.756 137.136 153.409 120.165L150.161 116.592C150.161 116.592 128.206 136.019 108.962 139.369L118.219 153.518Z" fill="#844837"/>
<path d="M153.409 120.165C153.46 120.165 155.439 117.678 155.51 117.505C156.306 116.403 156.803 115.112 156.951 113.76C156.911 112.972 156.655 112.211 156.211 111.559C155.767 110.908 155.152 110.391 154.434 110.066C154.123 109.874 153.76 109.785 153.396 109.81C153.032 109.836 152.685 109.975 152.404 110.208C152.225 110.423 152.091 110.671 152.008 110.938C151.795 111.513 151.615 112.099 151.47 112.694C151.367 112.25 151.217 111.818 151.024 111.405C150.942 111.233 150.831 111.04 150.638 111.009C150.548 111 150.457 111.019 150.378 111.065C150.3 111.11 150.238 111.18 150.201 111.263C150.132 111.43 150.097 111.61 150.1 111.791C150.049 112.806 149.978 113.821 149.948 114.836C149.973 115.201 150.024 115.564 150.1 115.922C150.1 116.054 150.1 116.49 150.201 116.602L153.409 120.165Z" fill="#F4A28C"/>
<path d="M83.5971 160.663C92.8641 163.82 107.957 165.444 124.085 152.655L119.751 134.192C119.751 134.192 93.8182 137.775 81.1814 148.402C80.2162 149.229 79.4881 150.298 79.0716 151.499C78.6551 152.7 78.5651 153.99 78.8108 155.238C79.0565 156.485 79.6292 157.645 80.4702 158.598C81.3111 159.551 82.3902 160.264 83.5971 160.663Z" fill="#9E3FF6"/>
<path opacity="0.46" d="M83.5971 160.663C92.8641 163.82 107.957 165.444 124.085 152.655L119.751 134.192C119.751 134.192 93.8182 137.775 81.1814 148.402C80.2162 149.229 79.4881 150.298 79.0716 151.499C78.6551 152.7 78.5651 153.99 78.8108 155.238C79.0565 156.485 79.6292 157.645 80.4702 158.598C81.3111 159.551 82.3902 160.264 83.5971 160.663Z" fill="white"/>
<path d="M99.2383 122.317C100.064 124.657 100.569 127.098 100.74 129.574C100.74 130.17 100.504 130.741 100.084 131.164C99.6637 131.586 99.0932 131.824 98.4973 131.827C97.5464 131.883 96.5995 131.663 95.7698 131.195C94.9401 130.727 94.2626 130.031 93.8181 129.188L91.575 125.747C91.1923 125.011 91.0483 124.173 91.1628 123.351C91.2774 122.529 91.6449 121.763 92.2144 121.159C94.1734 118.774 98.4669 119.708 99.2383 122.317Z" fill="#844837"/>
<path d="M91.9607 126.366L93.3411 140.921L101.309 139.582L97.1068 129.533L91.9607 126.366Z" fill="#844837"/>
<path d="M98.2131 122.773C96.8768 123.101 95.5206 123.342 94.1531 123.494C94.6896 123.983 95.0716 124.618 95.2519 125.322C95.4322 126.025 95.4031 126.766 95.1681 127.452C94.9409 128.111 94.4944 128.673 93.9032 129.042C93.3121 129.412 92.6121 129.567 91.9201 129.482C91.7078 128.84 91.5483 128.182 91.4431 127.513C91.1792 126.762 90.7731 125.93 89.9307 125.737C89.4046 125.725 88.8809 125.66 88.3676 125.544C88.2094 125.467 88.0695 125.356 87.9573 125.22C87.8452 125.085 87.7633 124.926 87.7172 124.756C87.6711 124.586 87.6618 124.408 87.6899 124.234C87.7181 124.06 87.783 123.895 87.8804 123.748C88.1849 123.342 88.7634 123.058 88.7431 122.56C88.7228 122.063 88.2458 121.87 87.9312 121.545C87.6519 121.228 87.4706 120.837 87.4093 120.419C87.3481 120.001 87.4095 119.574 87.586 119.19C87.9579 118.431 88.4997 117.768 89.1694 117.252C89.303 117.166 89.3977 117.031 89.4333 116.876C89.4333 116.643 89.2202 116.49 89.0679 116.318C88.9022 116.093 88.8129 115.821 88.8129 115.541C88.8129 115.262 88.9022 114.99 89.0679 114.765C89.4105 114.308 89.8748 113.956 90.4077 113.75C91.8214 113.173 93.3195 112.831 94.8433 112.735C95.5226 112.613 96.2221 112.668 96.8733 112.897C97.1861 113.014 97.4535 113.228 97.6361 113.507C97.8188 113.786 97.9071 114.117 97.8883 114.45C97.7969 115.08 97.188 115.618 97.3097 116.247C97.4316 116.876 98.2435 117.13 98.9033 117.14C99.5658 117.035 100.243 117.184 100.801 117.556C101.481 118.216 100.933 119.505 100.03 119.799C99.8511 119.84 99.682 119.916 99.5326 120.023C99.2687 120.266 99.3804 120.723 99.5935 121.038C99.841 121.308 100.025 121.631 100.131 121.982C100.243 122.814 98.9236 122.611 98.4465 122.692L98.2131 122.773Z" fill="#4F2D24"/>
<path d="M95.635 127.199C95.635 127.199 95.1782 125.544 93.9602 126.001C92.7422 126.458 93.3918 128.843 95.1478 128.63L95.635 127.199Z" fill="#844837"/>
<path d="M100.04 125.016L101.674 126.377C101.766 126.453 101.837 126.551 101.88 126.662C101.924 126.773 101.938 126.894 101.923 127.012C101.908 127.13 101.863 127.243 101.793 127.339C101.723 127.436 101.63 127.513 101.522 127.564L99.9488 128.305L100.04 125.016Z" fill="#844837"/>
<path opacity="0.31" d="M98.1217 131.685C97.0849 131.693 96.0685 131.397 95.1985 130.832C96.0221 132.78 97.5525 134.343 99.4818 135.207L98.1217 131.685Z" fill="#CE8172"/>
<path d="M72.6148 149.285C74.8962 145.192 78.4118 141.923 82.6604 139.945C86.909 137.968 91.6735 137.382 96.2744 138.272L99.7965 138.922C99.7965 138.922 124.674 142.566 123.142 165.485C121.993 179.652 116.991 193.236 108.678 204.765L75.0914 200.949C75.0914 200.949 62.3937 168.225 72.6148 149.285Z" fill="#9E3FF6"/>
<path d="M103.755 262.62L108.678 204.765L75.0914 200.949L63.9975 263.168H70.26L91.2604 222.802C91.504 220.69 97.9898 263.168 97.9898 263.168L103.755 262.62Z" fill="#24285B"/>
<path opacity="0.08" d="M89.8292 149.326C89.8292 149.326 92.0622 166.855 87.8601 182.871C83.658 198.888 87.8601 202.441 87.8601 202.441L75.0914 200.989C75.0914 200.989 72.29 193.884 71.7825 190.281C71.275 186.678 71.5795 147.255 89.8292 149.326Z" fill="black"/>
<path d="M73.7313 159.364C80.6028 166.337 93.3817 174.538 113.519 170.306L110.941 148.047C110.941 148.047 93.1076 143.469 77.0706 147.377C75.8458 147.686 74.7246 148.314 73.8205 149.196C72.9164 150.079 72.2617 151.185 71.9227 152.402C71.5837 153.618 71.5724 154.903 71.89 156.126C72.2076 157.349 72.8429 158.466 73.7313 159.364Z" fill="#9E3FF6"/>
<path opacity="0.46" d="M73.7313 159.364C80.6028 166.337 93.3817 174.538 113.519 170.306L110.941 148.047C110.941 148.047 93.1076 143.469 77.0706 147.377C75.8458 147.686 74.7246 148.314 73.8205 149.196C72.9164 150.079 72.2617 151.185 71.9227 152.402C71.5837 153.618 71.5724 154.903 71.89 156.126C72.2076 157.349 72.8429 158.466 73.7313 159.364Z" fill="white"/>
<path d="M113.276 168.225C113.276 168.225 143.452 164.997 159.671 154.137L158.362 149.488C158.362 149.488 130.043 157.04 111.327 151.437L113.276 168.225Z" fill="#844837"/>
<path d="M159.671 154.117C161.107 153.493 162.498 152.771 163.833 151.955C164.767 151.344 165.502 150.472 165.944 149.448C166.098 148.79 166.111 148.108 165.984 147.445C165.856 146.782 165.59 146.154 165.203 145.601C165.047 145.344 164.813 145.143 164.537 145.027C164.26 144.91 163.953 144.884 163.66 144.951C163.345 145.087 163.067 145.296 162.848 145.56C162.3 146.159 161.752 146.758 161.214 147.367C161.213 146.809 161.145 146.254 161.011 145.712C161.011 145.601 160.93 145.459 160.808 145.448C160.734 145.448 160.662 145.473 160.605 145.519C159.174 146.474 157.469 148.351 157.926 149.965C158.26 151.173 159.336 152.919 159.671 154.117Z" fill="#844837"/>
<path d="M64.9617 263.087C64.9617 263.087 63.3479 265.675 60.7799 265.34C58.212 265.005 57.0143 267.37 59.1559 268.477C61.2976 269.583 67.7733 267.939 67.7733 267.939L68.5548 263.27L64.9617 263.087Z" fill="#9E3FF6"/>
<path d="M283.045 145.651C284.076 145.942 285.024 146.471 285.813 147.196C286.601 147.921 287.208 148.822 287.583 149.825C287.959 150.829 288.093 151.906 287.975 152.971C287.856 154.036 287.489 155.057 286.902 155.954C284.171 160.196 278.934 165.88 269.098 170.164C251.204 177.969 226.468 157.537 226.468 157.537C226.468 157.537 220.378 155.629 221.059 152.208C221.739 148.788 228.57 153.883 228.57 153.883C228.57 153.883 241.013 163.211 255.437 158.725C267.17 155.091 274.062 143.165 283.045 145.651Z" fill="#F4A28C"/>
<path d="M143.553 89.5016C144.132 90.6145 144.929 91.5998 145.897 92.3988C146.864 93.1979 147.982 93.7945 149.184 94.1533C150.386 94.5121 151.649 94.6257 152.896 94.4875C154.143 94.3492 155.349 93.9619 156.444 93.3485C166.127 87.9081 182.235 80.9249 187.665 69.293C194.709 54.2101 163.985 34.4074 163.985 34.4074L159.55 39.4824C159.55 39.4824 199.368 64.5529 149.318 74.3781C142.944 75.6367 140.539 83.777 143.553 89.5321V89.5016Z" fill="#9E3FF6"/>
<path opacity="0.46" d="M143.553 89.5016C144.132 90.6145 144.929 91.5998 145.897 92.3988C146.864 93.1979 147.982 93.7945 149.184 94.1533C150.386 94.5121 151.649 94.6257 152.896 94.4875C154.143 94.3492 155.349 93.9619 156.444 93.3485C166.127 87.9081 182.235 80.9249 187.665 69.293C194.709 54.2101 163.985 34.4074 163.985 34.4074L159.55 39.4824C159.55 39.4824 199.368 64.5529 149.318 74.3781C142.944 75.6367 140.539 83.777 143.553 89.5321V89.5016Z" fill="white"/>
<path d="M232.477 95.9468C232.477 95.9468 234.639 94.5867 234.355 92.4248C234.071 90.2628 236.03 89.2377 236.984 91.0342C237.938 92.8308 236.578 98.3016 236.578 98.3016L232.64 98.9817L232.477 95.9468Z" fill="#9E3FF6"/>
<path d="M235.624 141.703C235.624 141.703 238.009 142.637 239.582 141.114C241.156 139.592 243.135 140.556 242.262 142.403C241.389 144.251 236.172 146.392 236.172 146.392L233.279 143.642L235.624 141.703Z" fill="#9E3FF6"/>
<path d="M125.862 70.785C127.849 72.2295 129.631 73.9368 131.16 75.86C131.483 76.3426 131.603 76.9334 131.492 77.5037C131.382 78.074 131.051 78.5776 130.571 78.905C129.828 79.4799 128.935 79.8286 127.999 79.9096C127.064 79.9906 126.124 79.8004 125.293 79.3618L121.538 77.8088C120.822 77.4242 120.242 76.8276 119.879 76.1007C119.516 75.3738 119.386 74.5523 119.508 73.7488C119.772 70.7038 123.781 69.0798 125.862 70.785Z" fill="#4F2D24"/>
<path d="M122.177 78.1133L131.393 89.2072L137.148 83.6958L128.135 77.8392L122.177 78.1133Z" fill="#4F2D24"/>
<path d="M125.283 71.7087C124.427 72.7696 123.449 73.7268 122.37 74.5608C123.082 74.6545 123.75 74.9557 124.292 75.4268C124.833 75.8979 125.224 76.5181 125.415 77.21C125.602 77.8752 125.557 78.5842 125.288 79.2206C125.019 79.8569 124.541 80.3828 123.933 80.7117L119.731 76.9258C119.111 76.4074 118.644 75.7303 118.379 74.9669C118.115 74.2034 118.063 73.3824 118.229 72.5917C118.364 71.9031 118.547 71.2248 118.777 70.5617C119.356 68.9073 121.751 67.8314 121.883 66.0044C121.883 65.815 121.937 65.6295 122.037 65.4689C122.137 65.3083 122.281 65.179 122.451 65.0956C122.621 65.0122 122.811 64.978 122.999 64.9969C123.188 65.0158 123.367 65.087 123.517 65.2025C124.979 66.1465 126.806 68.1562 125.983 70.5313C125.817 70.9599 125.58 71.3578 125.283 71.7087Z" fill="#24285B"/>
<path d="M125.608 76.7735C125.608 76.7735 124.319 75.6773 123.578 76.7227C122.837 77.7682 124.694 79.3516 126.004 78.2046L125.608 76.7735Z" fill="#4F2D24"/>
<path d="M128.013 72.5308L130.043 72.7236C130.155 72.7374 130.262 72.7779 130.355 72.8418C130.448 72.9057 130.524 72.9912 130.577 73.0908C130.63 73.1905 130.658 73.3014 130.659 73.4142C130.659 73.527 130.633 73.6383 130.581 73.7386L129.719 75.2104L128.013 72.5308Z" fill="#4F2D24"/>
<path opacity="0.31" d="M130.145 79.037C129.305 79.6162 128.313 79.9372 127.293 79.9606C129.039 81.0853 131.145 81.5094 133.19 81.1482L130.145 79.037Z" fill="#CE8172"/>
<path d="M131.393 89.2073L135.311 85.4517C136.266 84.5396 137.167 83.5738 138.011 82.559C140.701 79.2907 149.511 70.3181 162.523 74.5811C178.297 79.7373 187.31 110.37 187.31 110.37L169.314 131.025C169.314 131.025 106.8 119.353 131.393 89.2073Z" fill="#9E3FF6"/>
<path d="M160.382 38.4979C160.382 38.4979 153.409 35.3818 152.861 32.4079C152.313 29.4339 158.24 33.9811 158.24 33.9811C158.24 33.9811 161.021 28.7234 163.985 34.377L160.382 38.4979Z" fill="#4F2D24"/>
<path d="M158.768 34.9454C158.768 34.9454 153.997 29.8704 155.53 28.8554C157.063 27.8404 160.757 33.6969 160.757 33.6969L158.768 34.9454Z" fill="#4F2D24"/>
<path d="M169.314 131.005C169.314 131.005 182.6 142.089 190.548 131.807C198.495 121.525 199.865 97.51 232.792 99.7328L232.528 94.2823C232.528 94.2823 206.676 84.2033 185.97 106.381L169.314 131.005Z" fill="#24285B"/>
<path d="M179.931 135.471C179.931 135.471 205.306 117.861 230.985 145.428L235.624 141.703C235.624 141.703 220.399 111.608 181.433 116.054L179.931 135.471Z" fill="#24285B"/>
<path opacity="0.08" d="M144.497 96.16C144.497 96.16 150.465 99.205 154.241 110.37C158.017 121.535 177.505 118.967 177.505 118.967L169.314 131.066C169.314 131.066 149.105 126.783 138.204 119.789C127.303 112.796 144.213 96.8401 144.213 96.8401L144.497 96.16Z" fill="black"/>
<path d="M131.485 113.08C146.273 119.343 179.596 127.798 186.792 81.0872L180.154 78.499C180.154 78.499 166.959 109.791 141.097 95.5002C140.135 94.9549 139.138 94.4734 138.113 94.0589C133.515 92.2319 122.055 88.7708 122.198 99.5805C122.272 102.488 123.19 105.312 124.839 107.708C126.487 110.104 128.796 111.971 131.485 113.08Z" fill="#9E3FF6"/>
<path opacity="0.46" d="M131.485 113.08C146.273 119.343 179.596 127.798 186.792 81.0872L180.154 78.499C180.154 78.499 166.959 109.791 141.097 95.5002C140.135 94.9549 139.138 94.4734 138.113 94.0589C133.515 92.2319 122.055 88.7708 122.198 99.5805C122.272 102.488 123.19 105.312 124.839 107.708C126.487 110.104 128.796 111.971 131.485 113.08Z" fill="white"/>
<path d="M181.331 78.9557C181.758 76.6482 182.811 74.5025 184.376 72.7541C186.782 70.3587 189.238 70.7241 190.598 72.5917C191.958 74.4593 185.97 77.555 185.97 77.555L185.848 80.7117L181.331 78.9557Z" fill="#4F2D24"/>
<path opacity="0.5" d="M87.0495 97.351L72.7709 105.748L75.0195 109.572L89.298 101.174L87.0495 97.351Z" fill="#E6E6E6"/>
<path opacity="0.5" d="M252.096 98.7967L268.117 94.5876L266.99 90.2976L250.969 94.5067L252.096 98.7967Z" fill="#E6E6E6"/>
<path opacity="0.5" d="M212.34 67.4937L223.61 71.1383L224.584 68.1251L213.314 64.4805L212.34 67.4937Z" fill="#E6E6E6"/>
<path opacity="0.5" d="M258.771 61.7775L253.711 72.4873L256.574 73.8402L261.634 63.1304L258.771 61.7775Z" fill="#E6E6E6"/>
<path opacity="0.5" d="M202.15 146.407L197.09 157.117L199.953 158.469L205.014 147.76L202.15 146.407Z" fill="#E6E6E6"/>
<path opacity="0.5" d="M289.052 79.8114L300.786 81.4333L301.22 78.2963L289.486 76.6744L289.052 79.8114Z" fill="#E6E6E6"/>
<path opacity="0.5" d="M99.4969 83.4469L110.907 86.6283L111.757 83.5779L100.347 80.3965L99.4969 83.4469Z" fill="#E6E6E6"/>
<path opacity="0.5" d="M138.292 60.2702L149.898 57.9047L149.266 54.8017L137.659 57.1672L138.292 60.2702Z" fill="#E6E6E6"/>
<path opacity="0.5" d="M80.8499 63.3967L92.4563 61.0311L91.8239 57.9281L80.2174 60.2937L80.8499 63.3967Z" fill="#E6E6E6"/>
</svg>
