<svg width="160" height="160" viewBox="0 0 160 160" fill="none" xmlns="http://www.w3.org/2000/svg">
<path fill-rule="evenodd" clip-rule="evenodd" d="M73.9592 2.10759C73.9604 0.867396 72.9067 -0.115056 71.6729 0.0107974C53.9688 1.81671 37.3717 9.50459 24.5251 21.8499C23.6321 22.7081 23.6977 24.1449 24.6412 24.9472L56.2446 51.8237C57.0362 52.4969 58.1936 52.4958 59.0244 51.8715C62.9254 48.94 67.4004 46.8671 72.1558 45.7891C73.1675 45.5598 73.9164 44.6806 73.9175 43.6433L73.9592 2.10759ZM88.1438 0.0108829C86.91 -0.11497 85.8564 0.867481 85.8576 2.10767L85.8993 43.6433C85.9003 44.6807 86.6493 45.5599 87.661 45.7892C92.4163 46.8672 96.8913 48.9401 100.792 51.8716C101.623 52.4959 102.781 52.497 103.572 51.8238L135.176 24.9473C136.119 24.1449 136.185 22.7082 135.292 21.85C122.445 9.50468 105.848 1.81679 88.1438 0.0108829ZM118.145 146.229C120.246 146.229 121.015 148.846 119.182 149.872C109.052 155.54 97.7805 158.931 86.1532 159.77C84.1729 159.931 82.1696 160 80.1663 160C78.163 160 76.1939 159.931 74.2364 159.782C62.6102 158.934 51.3405 155.54 41.21 149.872C39.3767 148.847 40.1464 146.229 42.2471 146.229H118.145ZM4.99291 98.5016C3.61414 98.5016 2.59668 99.7903 2.96233 101.12C3.70857 103.833 4.59751 106.505 5.62559 109.124C5.94106 109.928 6.72191 110.448 7.58542 110.448H152.838C153.702 110.448 154.483 109.928 154.798 109.124C155.826 106.505 156.715 103.833 157.461 101.12C157.827 99.7906 156.809 98.5016 155.431 98.5016H4.99291ZM16.155 122.382C14.4794 122.382 13.4727 124.217 14.4323 125.59C14.7345 126.023 15.0409 126.453 15.3512 126.881C17.0506 129.233 18.8775 131.49 20.8236 133.641C21.2221 134.082 21.7904 134.329 22.3845 134.329H138.028C138.622 134.329 139.191 134.082 139.589 133.642C141.521 131.507 143.337 129.27 145.027 126.938C145.358 126.482 145.684 126.021 146.005 125.556C146.956 124.18 145.944 122.349 144.271 122.349L16.155 122.382ZM145.931 34.9654C145.229 33.9428 143.798 33.7747 142.852 34.5781L111.264 61.4304C110.473 62.1028 110.287 63.2439 110.768 64.1636C114.077 70.4839 115.379 77.6631 114.509 84.7348C114.344 86.0701 115.35 87.3011 116.696 87.3011H157.745C158.852 87.3011 159.778 86.4543 159.847 85.3493C159.949 83.7048 160 82.0602 160 80.4157C160.017 64.168 155.1 48.319 145.931 34.9654ZM17.1474 34.5781C16.2023 33.7747 14.7712 33.9428 14.0691 34.9654C4.90017 48.319 -0.0174065 64.168 8.39233e-05 80.4157C8.39233e-05 82.0602 0.0512123 83.7048 0.153053 85.3493C0.221485 86.4543 1.14777 87.3011 2.25489 87.3011H43.3043C44.6497 87.3011 45.6557 86.0701 45.4913 84.7348C44.6212 77.6631 45.9226 70.4839 49.2314 64.1636C49.7129 63.2439 49.5273 62.1028 48.7363 61.4304L17.1474 34.5781Z" fill="#9E3FF6"/>
</svg>
