<svg width="24" height="24" viewBox="0 0 24 24" fill="none" xmlns="http://www.w3.org/2000/svg">
<mask id="mask0_248_9120" style="mask-type:alpha" maskUnits="userSpaceOnUse" x="0" y="0" width="24" height="24">
<rect width="24" height="24" fill="#D9D9D9"/>
</mask>
<g mask="url(#mask0_248_9120)">
<path d="M17 20C17.1333 20 17.25 19.95 17.35 19.85C17.45 19.75 17.5 19.6333 17.5 19.5V16.5C17.5 16.3667 17.45 16.25 17.35 16.15C17.25 16.05 17.1333 16 17 16C16.8667 16 16.75 16.05 16.65 16.15C16.55 16.25 16.5 16.3667 16.5 16.5V19.5C16.5 19.6333 16.55 19.75 16.65 19.85C16.75 19.95 16.8667 20 17 20ZM17 15C17.1333 15 17.25 14.95 17.35 14.85C17.45 14.75 17.5 14.6333 17.5 14.5C17.5 14.3667 17.45 14.25 17.35 14.15C17.25 14.05 17.1333 14 17 14C16.8667 14 16.75 14.05 16.65 14.15C16.55 14.25 16.5 14.3667 16.5 14.5C16.5 14.6333 16.55 14.75 16.65 14.85C16.75 14.95 16.8667 15 17 15ZM8 14H10.675C10.8583 13.6167 11.0708 13.2583 11.3125 12.925C11.5542 12.5917 11.825 12.2833 12.125 12H8C7.71667 12 7.47917 12.0958 7.2875 12.2875C7.09583 12.4792 7 12.7167 7 13C7 13.2833 7.09583 13.5208 7.2875 13.7125C7.47917 13.9042 7.71667 14 8 14ZM8 18H10.075C10.025 17.6667 10 17.3333 10 17C10 16.6667 10.025 16.3333 10.075 16H8C7.71667 16 7.47917 16.0958 7.2875 16.2875C7.09583 16.4792 7 16.7167 7 17C7 17.2833 7.09583 17.5208 7.2875 17.7125C7.47917 17.9042 7.71667 18 8 18ZM5 22C4.45 22 3.97917 21.8042 3.5875 21.4125C3.19583 21.0208 3 20.55 3 20V4C3 3.45 3.19583 2.97917 3.5875 2.5875C3.97917 2.19583 4.45 2 5 2H12.175C12.4417 2 12.6958 2.05 12.9375 2.15C13.1792 2.25 13.3917 2.39167 13.575 2.575L18.425 7.425C18.6083 7.60833 18.75 7.82083 18.85 8.0625C18.95 8.30417 19 8.55833 19 8.825V10.3C18.6833 10.2 18.3583 10.125 18.025 10.075C17.6917 10.025 17.35 10 17 10V9H13C12.7167 9 12.4792 8.90417 12.2875 8.7125C12.0958 8.52083 12 8.28333 12 8V4H5V20H10.675C10.8583 20.3833 11.0708 20.7417 11.3125 21.075C11.5542 21.4083 11.825 21.7167 12.125 22H5ZM17 12C18.3833 12 19.5625 12.4875 20.5375 13.4625C21.5125 14.4375 22 15.6167 22 17C22 18.3833 21.5125 19.5625 20.5375 20.5375C19.5625 21.5125 18.3833 22 17 22C15.6167 22 14.4375 21.5125 13.4625 20.5375C12.4875 19.5625 12 18.3833 12 17C12 15.6167 12.4875 14.4375 13.4625 13.4625C14.4375 12.4875 15.6167 12 17 12Z" fill="#282828"/>
</g>
</svg>
