<svg width="24" height="24" viewBox="0 0 24 24" fill="none" xmlns="http://www.w3.org/2000/svg">
<mask id="mask0_736_1306" style="mask-type:alpha" maskUnits="userSpaceOnUse" x="0" y="0" width="24" height="24">
<rect width="24" height="24" transform="matrix(-1 0 0 1 24 0)" fill="#D9D9D9"/>
</mask>
<g mask="url(#mask0_736_1306)">
<path d="M12.7 19.3C12.8833 19.1167 12.9792 18.8833 12.9875 18.6C12.9958 18.3167 12.9083 18.0833 12.725 17.9L7.825 13H19C19.2833 13 19.5208 12.9042 19.7125 12.7125C19.9042 12.5208 20 12.2833 20 12C20 11.7167 19.9042 11.4792 19.7125 11.2875C19.5208 11.0958 19.2833 11 19 11H7.825L12.725 6.1C12.9083 5.91667 12.9958 5.68334 12.9875 5.4C12.9792 5.11667 12.8833 4.88334 12.7 4.7C12.5167 4.51667 12.2833 4.425 12 4.425C11.7167 4.425 11.4833 4.51667 11.3 4.7L4.7 11.3C4.6 11.3833 4.52917 11.4875 4.4875 11.6125C4.44583 11.7375 4.425 11.8667 4.425 12C4.425 12.1333 4.44583 12.2583 4.4875 12.375C4.52917 12.4917 4.6 12.6 4.7 12.7L11.3 19.3C11.4833 19.4833 11.7167 19.575 12 19.575C12.2833 19.575 12.5167 19.4833 12.7 19.3Z" fill="#9E3FF6"/>
</g>
</svg>
