<svg width="25" height="24" viewBox="0 0 25 24" fill="none" xmlns="http://www.w3.org/2000/svg">
<mask id="mask0_2209_980" style="mask-type:alpha" maskUnits="userSpaceOnUse" x="0" y="0" width="25" height="24">
<rect x="0.25" width="24" height="24" fill="#D9D9D9"/>
</mask>
<g mask="url(#mask0_2209_980)">
<path d="M2.25 20C1.96667 20 1.72917 19.9042 1.5375 19.7125C1.34583 19.5208 1.25 19.2833 1.25 19V16C1.25 15.45 1.44583 14.9792 1.8375 14.5875C2.22917 14.1958 2.7 14 3.25 14H6.525C6.85833 14 7.175 14.0833 7.475 14.25C7.775 14.4167 8.01667 14.6417 8.2 14.925C8.68333 15.575 9.27917 16.0833 9.9875 16.45C10.6958 16.8167 11.45 17 12.25 17C13.0667 17 13.8292 16.8167 14.5375 16.45C15.2458 16.0833 15.8333 15.575 16.3 14.925C16.5167 14.6417 16.7708 14.4167 17.0625 14.25C17.3542 14.0833 17.6583 14 17.975 14H21.25C21.8 14 22.2708 14.1958 22.6625 14.5875C23.0542 14.9792 23.25 15.45 23.25 16V19C23.25 19.2833 23.1542 19.5208 22.9625 19.7125C22.7708 19.9042 22.5333 20 22.25 20H17.25C16.9667 20 16.7292 19.9042 16.5375 19.7125C16.3458 19.5208 16.25 19.2833 16.25 19V17.725C15.6667 18.1417 15.0375 18.4583 14.3625 18.675C13.6875 18.8917 12.9833 19 12.25 19C11.5333 19 10.8333 18.8875 10.15 18.6625C9.46667 18.4375 8.83333 18.1167 8.25 17.7V19C8.25 19.2833 8.15417 19.5208 7.9625 19.7125C7.77083 19.9042 7.53333 20 7.25 20H2.25ZM12.25 16C11.6167 16 11.0167 15.8542 10.45 15.5625C9.88333 15.2708 9.40833 14.8667 9.025 14.35C8.74167 13.9333 8.3875 13.6042 7.9625 13.3625C7.5375 13.1208 7.075 13 6.575 13C6.94167 12.3833 7.71667 11.8958 8.9 11.5375C10.0833 11.1792 11.2 11 12.25 11C13.3 11 14.4167 11.1792 15.6 11.5375C16.7833 11.8958 17.5583 12.3833 17.925 13C17.4417 13 16.9833 13.1208 16.55 13.3625C16.1167 13.6042 15.7583 13.9333 15.475 14.35C15.1083 14.8833 14.6417 15.2917 14.075 15.575C13.5083 15.8583 12.9 16 12.25 16ZM4.25 13C3.41667 13 2.70833 12.7083 2.125 12.125C1.54167 11.5417 1.25 10.8333 1.25 10C1.25 9.16667 1.54167 8.45833 2.125 7.875C2.70833 7.29167 3.41667 7 4.25 7C5.08333 7 5.79167 7.29167 6.375 7.875C6.95833 8.45833 7.25 9.16667 7.25 10C7.25 10.8333 6.95833 11.5417 6.375 12.125C5.79167 12.7083 5.08333 13 4.25 13ZM20.25 13C19.4167 13 18.7083 12.7083 18.125 12.125C17.5417 11.5417 17.25 10.8333 17.25 10C17.25 9.16667 17.5417 8.45833 18.125 7.875C18.7083 7.29167 19.4167 7 20.25 7C21.0833 7 21.7917 7.29167 22.375 7.875C22.9583 8.45833 23.25 9.16667 23.25 10C23.25 10.8333 22.9583 11.5417 22.375 12.125C21.7917 12.7083 21.0833 13 20.25 13ZM12.25 10C11.4167 10 10.7083 9.70833 10.125 9.125C9.54167 8.54167 9.25 7.83333 9.25 7C9.25 6.16667 9.54167 5.45833 10.125 4.875C10.7083 4.29167 11.4167 4 12.25 4C13.0833 4 13.7917 4.29167 14.375 4.875C14.9583 5.45833 15.25 6.16667 15.25 7C15.25 7.83333 14.9583 8.54167 14.375 9.125C13.7917 9.70833 13.0833 10 12.25 10Z" fill="#282828"/>
</g>
</svg>
