<svg width="24" height="24" viewBox="0 0 24 24" fill="none" xmlns="http://www.w3.org/2000/svg">
<mask id="mask0_237_5551" style="mask-type:alpha" maskUnits="userSpaceOnUse" x="0" y="0" width="24" height="24">
<rect width="24" height="24" fill="#D9D9D9"/>
</mask>
<g mask="url(#mask0_237_5551)">
<path d="M6 21C4.9 21 3.95833 20.6083 3.175 19.825C2.39167 19.0417 2 18.1 2 17C2 15.9 2.39167 14.9583 3.175 14.175C3.95833 13.3917 4.9 13 6 13C7.1 13 8.04167 13.3917 8.825 14.175C9.60833 14.9583 10 15.9 10 17C10 18.1 9.60833 19.0417 8.825 19.825C8.04167 20.6083 7.1 21 6 21ZM18 21C16.9 21 15.9583 20.6083 15.175 19.825C14.3917 19.0417 14 18.1 14 17C14 15.9 14.3917 14.9583 15.175 14.175C15.9583 13.3917 16.9 13 18 13C19.1 13 20.0417 13.3917 20.825 14.175C21.6083 14.9583 22 15.9 22 17C22 18.1 21.6083 19.0417 20.825 19.825C20.0417 20.6083 19.1 21 18 21ZM6 19C6.55 19 7.02083 18.8042 7.4125 18.4125C7.80417 18.0208 8 17.55 8 17C8 16.45 7.80417 15.9792 7.4125 15.5875C7.02083 15.1958 6.55 15 6 15C5.45 15 4.97917 15.1958 4.5875 15.5875C4.19583 15.9792 4 16.45 4 17C4 17.55 4.19583 18.0208 4.5875 18.4125C4.97917 18.8042 5.45 19 6 19ZM18 19C18.55 19 19.0208 18.8042 19.4125 18.4125C19.8042 18.0208 20 17.55 20 17C20 16.45 19.8042 15.9792 19.4125 15.5875C19.0208 15.1958 18.55 15 18 15C17.45 15 16.9792 15.1958 16.5875 15.5875C16.1958 15.9792 16 16.45 16 17C16 17.55 16.1958 18.0208 16.5875 18.4125C16.9792 18.8042 17.45 19 18 19ZM12 11C10.9 11 9.95833 10.6083 9.175 9.825C8.39167 9.04167 8 8.1 8 7C8 5.9 8.39167 4.95833 9.175 4.175C9.95833 3.39167 10.9 3 12 3C13.1 3 14.0417 3.39167 14.825 4.175C15.6083 4.95833 16 5.9 16 7C16 8.1 15.6083 9.04167 14.825 9.825C14.0417 10.6083 13.1 11 12 11ZM12 9C12.55 9 13.0208 8.80417 13.4125 8.4125C13.8042 8.02083 14 7.55 14 7C14 6.45 13.8042 5.97917 13.4125 5.5875C13.0208 5.19583 12.55 5 12 5C11.45 5 10.9792 5.19583 10.5875 5.5875C10.1958 5.97917 10 6.45 10 7C10 7.55 10.1958 8.02083 10.5875 8.4125C10.9792 8.80417 11.45 9 12 9Z" fill="#282828"/>
</g>
</svg>
