<svg width="24" height="24" viewBox="0 0 24 24" fill="none" xmlns="http://www.w3.org/2000/svg">
<g id="faq">
<mask id="mask0_248_9069" style="mask-type:alpha" maskUnits="userSpaceOnUse" x="0" y="0" width="24" height="24">
<rect id="Bounding box" width="24" height="24" fill="#D9D9D9"/>
</mask>
<g mask="url(#mask0_248_9069)">
<path id="contact_support" d="M12 22L11.75 19H11.5C9.13333 19 7.125 18.175 5.475 16.525C3.825 14.875 3 12.8667 3 10.5C3 8.13333 3.825 6.125 5.475 4.475C7.125 2.825 9.13333 2 11.5 2C12.6833 2 13.7875 2.22083 14.8125 2.6625C15.8375 3.10417 16.7375 3.7125 17.5125 4.4875C18.2875 5.2625 18.8958 6.1625 19.3375 7.1875C19.7792 8.2125 20 9.31667 20 10.5C20 13.0333 19.2417 15.3042 17.725 17.3125C16.2083 19.3208 14.3 20.8833 12 22ZM11.475 15.975C11.7583 15.975 12 15.875 12.2 15.675C12.4 15.475 12.5 15.2333 12.5 14.95C12.5 14.6667 12.4 14.425 12.2 14.225C12 14.025 11.7583 13.925 11.475 13.925C11.1917 13.925 10.95 14.025 10.75 14.225C10.55 14.425 10.45 14.6667 10.45 14.95C10.45 15.2333 10.55 15.475 10.75 15.675C10.95 15.875 11.1917 15.975 11.475 15.975ZM11.5 12.8C11.6833 12.8 11.85 12.7333 12 12.6C12.15 12.4667 12.25 12.2833 12.3 12.05C12.3333 11.8333 12.425 11.6375 12.575 11.4625C12.725 11.2875 12.9833 11.0167 13.35 10.65C13.65 10.35 13.9 10.025 14.1 9.675C14.3 9.325 14.4 8.95 14.4 8.55C14.4 7.7 14.1125 7.0625 13.5375 6.6375C12.9625 6.2125 12.2833 6 11.5 6C10.9167 6 10.4125 6.13333 9.9875 6.4C9.5625 6.66667 9.21667 7 8.95 7.4C8.83333 7.58333 8.8125 7.775 8.8875 7.975C8.9625 8.175 9.11667 8.31667 9.35 8.4C9.51667 8.46667 9.68333 8.46667 9.85 8.4C10.0167 8.33333 10.1667 8.20833 10.3 8.025C10.4333 7.84167 10.5958 7.69167 10.7875 7.575C10.9792 7.45833 11.2167 7.4 11.5 7.4C11.95 7.4 12.2875 7.525 12.5125 7.775C12.7375 8.025 12.85 8.3 12.85 8.6C12.85 8.88333 12.7667 9.1375 12.6 9.3625C12.4333 9.5875 12.2333 9.81667 12 10.05C11.5333 10.45 11.2208 10.775 11.0625 11.025C10.9042 11.275 10.8083 11.6167 10.775 12.05C10.7583 12.25 10.8208 12.425 10.9625 12.575C11.1042 12.725 11.2833 12.8 11.5 12.8ZM14 17V18.35C15.1833 17.35 16.1458 16.1792 16.8875 14.8375C17.6292 13.4958 18 12.05 18 10.5C18 8.68333 17.3708 7.14583 16.1125 5.8875C14.8542 4.62917 13.3167 4 11.5 4C9.68333 4 8.14583 4.62917 6.8875 5.8875C5.62917 7.14583 5 8.68333 5 10.5C5 12.3167 5.62917 13.8542 6.8875 15.1125C8.14583 16.3708 9.68333 17 11.5 17H14Z" fill="#282828"/>
</g>
</g>
</svg>
