<svg xmlns="http://www.w3.org/2000/svg" xmlns:xlink="http://www.w3.org/1999/xlink" version="1.1" width="256" height="256" viewBox="0 0 256 256" xml:space="preserve">

<defs>
</defs>
<g style="stroke: none; stroke-width: 0; stroke-dasharray: none; stroke-linecap: butt; stroke-linejoin: miter; stroke-miterlimit: 10; fill: none; fill-rule: nonzero; opacity: 1;" transform="translate(1.4065934065934016 1.4065934065934016) scale(2.81 2.81)" >
	<path d="M 65.645 80.277 C 80.007 66.354 78.862 43.11 64.11 29.601 C 43.757 10.962 25.776 21.173 5.549 0.572 C 4.59 -0.405 2.928 0.116 2.732 1.47 c -4.215 29.126 -6.268 57.314 14.844 78.426 C 30.829 93.149 52.236 93.276 65.645 80.277 z" style="stroke: none; stroke-width: 1; stroke-dasharray: none; stroke-linecap: butt; stroke-linejoin: miter; stroke-miterlimit: 10; fill: rgb(105,181,101); fill-rule: nonzero; opacity: 1;" transform=" matrix(1 0 0 1 0 0) " stroke-linecap="round" />
	<path d="M 22.479 43.395 c -0.387 -0.767 0.629 -1.459 1.209 -0.827 c 4.17 4.541 8.574 8.65 13.385 12.149 c 6.015 4.428 12.624 7.859 19.594 10.336 c 6.972 2.481 14.293 4.025 21.788 4.811 c 3.261 0.352 6.548 0.552 9.869 0.648 c 2.079 0.06 2.296 3.083 0.243 3.42 c -3.399 0.559 -6.854 0.866 -10.324 0.931 c -7.982 0.13 -16.086 -1.088 -23.719 -3.82 c -7.629 -2.712 -14.767 -6.958 -20.64 -12.492 C 29.212 54.156 25.31 49.008 22.479 43.395 z" style="stroke: none; stroke-width: 1; stroke-dasharray: none; stroke-linecap: butt; stroke-linejoin: miter; stroke-miterlimit: 10; fill: rgb(0,148,85); fill-rule: nonzero; opacity: 1;" transform=" matrix(1 0 0 1 0 0) " stroke-linecap="round" />
</g>
</svg>