<svg width="24" height="24" viewBox="0 0 24 24" fill="none" xmlns="http://www.w3.org/2000/svg">
<mask id="mask0_248_9158" style="mask-type:alpha" maskUnits="userSpaceOnUse" x="0" y="0" width="24" height="24">
<rect width="24" height="24" fill="#D9D9D9"/>
</mask>
<g mask="url(#mask0_248_9158)">
<path d="M12 16C12.2833 16 12.5208 15.9042 12.7125 15.7125C12.9042 15.5209 13 15.2834 13 15C13 14.7167 12.9042 14.4792 12.7125 14.2875C12.5208 14.0959 12.2833 14 12 14C11.7167 14 11.4792 14.0959 11.2875 14.2875C11.0958 14.4792 11 14.7167 11 15C11 15.2834 11.0958 15.5209 11.2875 15.7125C11.4792 15.9042 11.7167 16 12 16ZM12 12C12.2833 12 12.5208 11.9042 12.7125 11.7125C12.9042 11.5209 13 11.2834 13 11V8.00002C13 7.71669 12.9042 7.47919 12.7125 7.28752C12.5208 7.09586 12.2833 7.00002 12 7.00002C11.7167 7.00002 11.4792 7.09586 11.2875 7.28752C11.0958 7.47919 11 7.71669 11 8.00002V11C11 11.2834 11.0958 11.5209 11.2875 11.7125C11.4792 11.9042 11.7167 12 12 12ZM12 21.9C11.8833 21.9 11.775 21.8917 11.675 21.875C11.575 21.8584 11.475 21.8334 11.375 21.8C9.125 21.05 7.33333 19.6625 6 17.6375C4.66667 15.6125 4 13.4334 4 11.1V6.37502C4 5.95836 4.12083 5.58336 4.3625 5.25002C4.60417 4.91669 4.91667 4.67502 5.3 4.52502L11.3 2.27502C11.5333 2.19169 11.7667 2.15002 12 2.15002C12.2333 2.15002 12.4667 2.19169 12.7 2.27502L18.7 4.52502C19.0833 4.67502 19.3958 4.91669 19.6375 5.25002C19.8792 5.58336 20 5.95836 20 6.37502V11.1C20 13.4334 19.3333 15.6125 18 17.6375C16.6667 19.6625 14.875 21.05 12.625 21.8C12.525 21.8334 12.425 21.8584 12.325 21.875C12.225 21.8917 12.1167 21.9 12 21.9ZM12 19.9C13.7333 19.35 15.1667 18.25 16.3 16.6C17.4333 14.95 18 13.1167 18 11.1V6.37502L12 4.12502L6 6.37502V11.1C6 13.1167 6.56667 14.95 7.7 16.6C8.83333 18.25 10.2667 19.35 12 19.9Z" fill="#1C1B1F"/>
</g>
</svg>
